<?xml version="1.0" encoding="utf-8"?>
<!-- Generator: Adobe Illustrator 27.4.1, SVG Export Plug-In . SVG Version: 6.00 Build 0)  -->
<svg version="1.1"
	 id="fantasyMap" xmlns:rdf="http://www.w3.org/1999/02/22-rdf-syntax-ns#" xmlns:svg="http://www.w3.org/2000/svg" xmlns:dc="http://purl.org/dc/elements/1.1/"
	 xmlns="http://www.w3.org/2000/svg" xmlns:xlink="http://www.w3.org/1999/xlink" x="0px" y="0px" viewBox="0 0 1792 1043"
	 style="enable-background:new 0 0 1792 1043;" xml:space="preserve">
<path d="z"/>
<path id="island_4" d="M1572,205.7c1.3,0,2.7,0.6,4,0.8s2.7-0.2,4.2,0s3.1,0.8,4.3,2.2c1.2,1.3,1.8,3.3,2.7,4.6
	c0.8,1.4,1.8,2,2.5,3.2c0.6,1.2,1,2.8,1.1,3.8c0.2,1,0.2,1.4,0.7,2.7s1.5,3.7,1.8,4.8c0.4,1.2,0,1.2,0.9,2.7c0.8,1.5,2.8,4.5,4.1,6
	c1.4,1.5,2,1.5,2.7,3.2c0.7,1.6,1.3,5,1.2,7.1c-0.2,2.2-1.2,3.2-1.9,4.4c-0.6,1.1-1,2.5-1.6,3.6c-0.7,1.2-1.7,2.2-2.4,3
	c-0.6,0.9-1,1.5-2.8,2s-5.2,0.9-7.3,1.4c-2.2,0.5-3.2,1.1-4.4,1.3c-1.1,0.2-2.5-0.2-4,0s-3.1,0.8-4.8-0.3c-1.7-1.2-3.3-4.2-5.2-4.7
	c-1.8-0.5-3.8,1.5-6,2.5c-2.1,1-4.5,1-6,1.2c-1.5,0.1-2.1,0.5-2.5,0.8c-0.3,0.3-0.3,0.7-1.1,1.7c-0.9,1-2.5,2.6-4,3.6
	s-2.9,1.4-4.4,2.5c-1.5,1.2-3.1,3.2-4.8,4c-1.7,0.9-3.3,0.5-4.8,1.2s-2.9,2.3-4.2,3.3s-2.7,1.4-3.7,2.2s-1.6,2.2-3.1,3.3
	c-1.5,1.2-3.9,2.2-5.2,4.2s-1.7,5-2.2,6.8c-0.5,1.9-1.1,2.5-1.6,3.7s-0.9,2.8-2,4.5c-1.2,1.7-3.2,3.3-4.4,5.3
	c-1.1,2-1.5,4.4-1.8,5.9s-0.7,2.1-0.8,3.3c-0.2,1.2-0.2,2.8-0.4,4.2c-0.1,1.3-0.5,2.3-0.8,2.8s-0.7,0.5-1,2.3
	c-0.3,1.9-0.7,5.5-0.3,8c0.3,2.5,1.3,3.9,1.8,5.7s0.5,4.2,1,6s1.5,3.2,2,4.7s0.5,3.1,0.7,4.1c0.1,1,0.5,1.4,0.5,2
	c0,0.7-0.4,1.7-1.7,3.2s-3.7,3.5-4.7,5.5s-0.6,4-0.8,5.3c-0.2,1.4-0.8,2-1.3,3s-0.9,2.4-0.5,3.7c0.3,1.3,1.3,2.7,1.5,4.3
	c0.1,1.7-0.5,3.7,0,5.7s2.1,4,3.5,5c1.3,1,2.3,1,3.6,1.3c1.4,0.4,3,1,3.9,2c0.8,1,0.8,2.4,1.3,3.4s1.5,1.6,2.3,3.8
	c0.9,2.2,1.5,5.8,0.9,7.7c-0.7,1.8-2.7,1.8-4.4,3.1c-1.6,1.4-3,4-4.1,5.2c-1.2,1.2-2.2,0.8-3.9,2c-1.6,1.2-4,3.8-5.1,5.7
	c-1.2,1.8-1.2,2.8-0.7,3.8s1.5,2,2.5,3.7c1,1.6,2,4,2.7,5.3c0.6,1.3,1,1.7,1.3,2.2s0.7,1.1,2.2,2.1s4.1,2.4,6.3,2.9s3.8,0.1,4.8-0.9
	s1.4-2.6,2-3.6c0.7-1,1.7-1.4,2.7-2.5c1-1.2,2-3.2,3.7-4c1.6-0.9,4-0.5,5.3,0.1c1.3,0.7,1.7,1.7,2.2,2.7s1.1,2,1.5,3.2
	c0.3,1.1,0.3,2.5,1.1,4c0.9,1.5,2.5,3.1,3.2,5.3s0.3,4.8-0.7,6.8s-2.6,3.4-3.6,4c-1,0.7-1.4,0.7-2,2c-0.7,1.4-1.7,4-2,5.9
	c-0.4,1.8,0,2.8,1,4.1c1,1.4,2.6,3,4,3.9c1.3,0.8,2.3,0.8,4,1.6c1.6,0.9,4,2.5,5.3,3.7s1.7,1.8,1.2,3.3s-1.9,3.9-2.4,5.2
	s-0.1,1.7-0.5,3c-0.3,1.3-1.3,3.7-1.1,5.5c0.1,1.8,1.5,3.2,2,4.5s0.1,2.7,0.6,4.2s1.9,3.1,2.5,4.3c0.7,1.2,0.7,1.8,1.7,2.8
	s3,2.4,4.2,4.4c1.1,2,1.5,4.6,3,6.3s4.1,2.3,6,2.2c1.8-0.2,2.8-1.2,3.5-2.2c0.6-1,1-2,0.1-3.8c-0.8-1.9-2.8-4.5-3.6-6.9
	c-0.9-2.3-0.5-4.3,0.5-6c1-1.6,2.6-3,3.5-3.8c0.8-0.8,0.8-1.2,2.3-2.2s4.5-2.6,7.2-2.6c2.6,0,5,1.6,6.3,3.6s1.7,4.4,2,5.9
	s0.7,2.1,1,3.1s0.7,2.4,1.7,3.5c1,1.2,2.6,2.2,3.8,2.7s1.8,0.5,3.2,0.2c1.3-0.4,3.3-1,4.6-1.4c1.4-0.3,2-0.3,3.2-0.8s2.8-1.5,5-1.8
	c2.2-0.4,4.8,0,6.7-0.4c1.8-0.3,2.8-1.3,4.6-1.8c1.9-0.5,4.5-0.5,6-1.5s1.9-3,1.5-4.8c-0.3-1.9-1.3-3.5-1.3-5.4c0-1.8,1-3.8,2.8-5
	c1.9-1.1,4.5-1.5,6-1.5s1.9,0.4,2.4,1.7s1.1,3.7,1.6,5.2s0.9,2.1,1.2,3.8s0.7,4.3,1.3,6c0.7,1.7,1.7,2.3,2.7,3.7
	c1,1.3,2,3.3,3.7,4.6c1.6,1.4,4,2,4.8,3.9c0.8,1.8,0.2,4.8,0.5,6.6c0.3,1.9,1.7,2.5,2.3,4.4c0.7,1.8,0.7,4.8,1.7,6.6
	c1,1.9,3,2.5,4.3,3.9c1.4,1.3,2,3.3,2.9,4.6c0.8,1.4,1.8,2,2.6,3.4c0.9,1.3,1.5,3.3,2.2,4.5c0.7,1.1,1.3,1.5,2.2,1.8
	c0.8,0.3,1.8,0.7,3.3,2s3.5,3.7,4.8,5c1.4,1.3,2,1.7,2.9,2.8c0.8,1.2,1.8,3.2,2.6,4.4c0.9,1.1,1.5,1.5,2,1.8s0.9,0.7,1.5,1.5
	c0.7,0.8,1.7,2.2,3.2,3.3c1.5,1.2,3.5,2.2,4.7,3.5c1.1,1.4,1.5,3,1.3,4.7s-0.8,3.3-2.2,4.7c-1.3,1.3-3.3,2.3-4.3,3
	c-1,0.6-1,1-1.8,1.8c-0.9,0.8-2.5,2.2-3.9,2.8c-1.3,0.7-2.3,0.7-3.8,1.4c-1.5,0.6-3.5,2-4.7,2.6c-1.1,0.7-1.5,0.7-3,1.7
	s-4.1,3-5.3,4.7c-1.2,1.6-0.8,3,1,3.6c1.8,0.7,5.2,0.7,6.8,1.5c1.7,0.9,1.7,2.5,2.2,4s1.5,2.9,1.8,4c0.4,1.2,0,2.2,0.5,4
	c0.5,1.9,1.9,4.5,3.5,6c1.7,1.5,3.7,1.9,5,3.2c1.4,1.3,2,3.7,2.9,5.3c0.8,1.7,1.8,2.7,2.3,3.2s0.5,0.5,2.3,2.2
	c1.9,1.6,5.5,5,7.4,6.6c1.8,1.7,1.8,1.7,2.6,2.7c0.9,1,2.5,3,4,4.3c1.5,1.4,2.9,2,3.7,2.7s1.2,1.3,1.2,2.8s-0.4,3.9-2,5.5
	c-1.7,1.7-4.7,2.7-6.4,3.7c-1.6,1-2,2-3.3,3s-3.7,2-5,2.8c-1.3,0.9-1.7,1.5-3.7,2s-5.6,0.9-7.6-0.1s-2.4-3.4-2.9-4.9
	s-1.1-2.1-1.6-3.6s-0.9-3.9-1.7-5.4s-2.2-2.1-3.3-2.3c-1.2-0.2-2.2,0.2-3.5-0.2c-1.4-0.3-3-1.3-4.2-1.8s-1.8-0.5-3-1
	s-2.8-1.5-4.3-1.8c-1.5-0.4-2.9,0-4.2-1s-2.7-3.4-4-4.5c-1.3-1.2-2.7-1.2-3.8-2.2c-1.2-1-2.2-3-3.4-4.2c-1.1-1.1-2.5-1.5-3.8-1.5
	s-2.7,0.4-4.5,0.4s-4.2-0.4-5.3-0.5c-1.2-0.2-1.2-0.2-1.7-0.2s-1.5,0-2.7,0.5c-1.1,0.5-2.5,1.5-3.3,3.5s-1.2,5-1,7s0.8,3,0.8,4.5
	s-0.6,3.5-0.6,5.3c0,1.9,0.6,3.5,0.6,5s-0.6,2.9-0.6,5.2s0.6,5.7,1.1,7.5s0.9,2.2,1,2.7c0.2,0.5,0.2,1.1-0.1,2.8
	c-0.4,1.7-1,4.3-1.4,5.7c-0.3,1.3-0.3,1.3-0.6,2.3c-0.4,1-1,3-2.2,4.8c-1.2,1.9-2.8,3.5-3.7,4.7c-0.8,1.2-0.8,1.8-1.6,2.7
	c-0.9,0.8-2.5,1.8-3.4,2.5c-0.8,0.6-0.8,1-0.8,1.5s0,1.1-0.5,3c-0.5,1.8-1.5,4.8-1.2,6.8c0.4,2,2,3,2.4,5.3c0.3,2.4-0.7,6-1.2,7.9
	c-0.5,1.8-0.5,1.8-0.2,2.1c0.4,0.4,1,1,1.7,2s1.3,2.4,3,3.4s4.3,1.6,6.8,0.8s4.9-3.2,6-4.2c1.2-1,1.2-0.6,1.9,0.7
	c0.6,1.3,2,3.7,2.5,5.5s0.1,3.2-1,4.3c-1.2,1.2-3.2,2.2-4.5,3.4c-1.4,1.1-2,2.5-2.5,3.1c-0.5,0.7-0.9,0.7-2,0.4
	c-1.2-0.4-3.2-1-5.2-0.9c-2,0.2-4,1.2-5.3,2.5c-1.4,1.4-2,3-1.7,4.5s1.7,2.9,2,4.4s-0.3,3.1-2.2,4.1c-1.8,1-4.8,1.4-6.3,1.5
	c-1.5,0.2-1.5,0.2-2.5,0.5c-1,0.4-3,1-4.5,1.2s-2.5-0.2-3.7,0.2c-1.1,0.3-2.5,1.3-3.5,2.6c-1,1.4-1.6,3-2.3,4s-1.3,1.4-2.2,2.9
	c-0.8,1.5-1.8,4.1-2,6c-0.1,1.8,0.5,2.8,0.9,4.3c0.3,1.5,0.3,3.5,0.6,5.2c0.4,1.6,1,3,1.2,4.8s-0.2,4.2-1,5.8
	c-0.8,1.7-2.2,2.7-3.7,3c-1.5,0.4-3.1,0-4-0.1c-0.8-0.2-0.8-0.2-2.3-0.2s-4.5,0-6.3-0.3c-1.9-0.4-2.5-1-4.2-0.7s-4.3,1.7-6,2.2
	s-2.3,0.1-2.8-0.5c-0.5-0.7-0.9-1.7-0.5-3c0.3-1.4,1.3-3,0.6-4.9c-0.6-1.8-3-3.8-4.3-4.8s-1.7-1-2.2-1.5s-1.1-1.5-2.3-2.2
	c-1.2-0.6-2.8-1-4-1.8s-1.8-2.2-2.2-2.8c-0.3-0.7-0.3-0.7-1.5-2.4c-1.1-1.6-3.5-5-5.6-5.8c-2.2-0.8-4.2,0.8-6.4,1.3
	c-2.1,0.5-4.5-0.1-6-0.3s-2.1,0.2-2.8,0.7s-1.3,1.1-1.8,1.6s-0.9,0.9-2.9,0.9s-5.6-0.4-8-0.9c-2.3-0.5-3.3-1.1-4-2.3
	c-0.6-1.2-1-2.8-1.1-4.2c-0.2-1.3-0.2-2.3-1.2-3.8s-3-3.5-5-4.3c-2-0.9-4-0.5-5-2.4c-1-1.8-1-5.8-1.7-8c-0.6-2.1-2-2.5-2.8-2.6
	c-0.8-0.2-1.2-0.2-1.5-0.9c-0.3-0.6-0.7-2-0.2-4.3s1.9-5.7,2.4-7.5s0.1-2.2-0.7-2.8c-0.8-0.7-2.2-1.7-4.2-1.9c-2-0.1-4.6,0.5-6.3,2
	s-2.3,3.9-2.3,5.4s0.6,2.1,0.6,3.8s-0.6,4.3-1.3,5.8s-1.3,1.9-2,3.2s-1.3,3.7-1.8,5s-0.9,1.7-1.4,2.8c-0.5,1.2-1.1,3.2-2.3,4.5
	c-1.2,1.4-2.8,2-4.5,1.7s-3.3-1.7-4.5-3.2s-1.8-3.1-2-4.5c-0.2-1.3,0.2-2.3-0.3-3.5c-0.5-1.1-1.9-2.5-2.5-4.3
	c-0.7-1.8-0.7-4.2-1.7-5.8c-1-1.7-3-2.7-4.8-2.5c-1.9,0.1-3.5,1.5-5,2.1c-1.5,0.7-2.9,0.7-3.7,0.5c-0.8-0.1-1.2-0.5-1.7-1.3
	s-1.1-2.2-2.5-3.5c-1.3-1.3-3.3-2.7-5-3.2c-1.6-0.5-3-0.1-3.8,0.4s-1.2,1.1-1.8,1.5c-0.7,0.3-1.7,0.3-2.5,0.3c-0.9,0-1.5,0-2.9,0.5
	c-1.3,0.5-3.3,1.5-4.6,2.5c-1.4,1-2,2-2.4,2.7c-0.3,0.6-0.3,1-2.1,1c-1.9,0-5.5-0.4-7.4-0.5c-1.8-0.2-1.8-0.2-3.3,0.1
	c-1.5,0.4-4.5,1-6.7,1.2c-2.1,0.2-3.5-0.2-4.3-0.3c-0.8-0.2-1.2-0.2-2.7,0c-1.5,0.1-4.1,0.5-5.6,0.6c-1.5,0.2-1.9,0.2-3.2,0.4
	c-1.3,0.1-3.7,0.5-5.3,0.5c-1.7,0-2.7-0.4-4-0.2c-1.4,0.2-3,0.8-5.2,0.8s-4.8-0.6-6.2-1.1c-1.3-0.5-1.3-0.9-2.8-0.9s-4.5,0.4-6.7,0
	c-2.1-0.3-3.5-1.3-5.1-1.5c-1.7-0.1-3.7,0.5-5.4,0.4c-1.6-0.2-3-1.2-4.3-3c-1.3-1.9-2.7-4.5-3.3-5.9c-0.7-1.3-0.7-1.3-1.5-2
	c-0.9-0.6-2.5-2-4.9-2.5c-2.3-0.5-5.3-0.1-7.1,0.7c-1.9,0.8-2.5,2.2-4.2,2.8c-1.7,0.7-4.3,0.7-6.5,1.5c-2.2,0.9-3.8,2.5-4.7,4.4
	c-0.8,1.8-0.8,3.8-0.8,5c0,1.1,0,1.5,0.2,2.8c0.1,1.3,0.5,3.7,0.6,5c0.2,1.3,0.2,1.7-1.1,2.7c-1.4,1-4,2.6-6.5,2.8s-4.9-1.2-6-2.3
	c-1.2-1.2-1.2-2.2-0.9-3.5c0.4-1.4,1-3,1-4.7s-0.6-3.3-0.3-4.8s1.7-2.9,1.7-4.7s-1.4-4.2-3-4.8c-1.7-0.7-3.7,0.3-5.4,0.3
	c-1.6,0-3-1-4.6-1.3c-1.7-0.4-3.7,0-4.7,0.1c-1,0.2-1,0.2-1.2-0.3c-0.1-0.5-0.5-1.5-1.3-2.3c-0.8-0.9-2.2-1.5-3.5-2.7
	s-2.7-2.8-3.2-4.7c-0.5-1.8-0.1-3.8,0.2-5.1c0.3-1.4,0.7-2,1-2.4c0.3-0.3,0.7-0.3,1.7-1.3s2.6-3,3.6-4s1.4-1,2.5-2.2
	c1.2-1.1,3.2-3.5,4.2-5.3s1-3.2-0.2-4.2c-1.1-1-3.5-1.6-5.1-3.5c-1.7-1.8-2.7-4.8-3.7-6.3s-2-1.5-2.8-2.8c-0.9-1.4-1.5-4-1.5-5.9
	c0-1.8,0.6-2.8,0.5-4.8c-0.2-2-1.2-5-1.9-6.7c-0.6-1.6-1-2-1.3-2.5s-0.7-1.1-2.2-1.5c-1.5-0.3-4.1-0.3-6.3-1.6c-2.2-1.4-3.8-4-6-5.2
	s-4.8-0.8-6.2,0c-1.3,0.8-1.3,2.2-0.1,4.8c1.1,2.7,3.5,6.7,4.6,9c1.2,2.4,1.2,3,1.5,3.9c0.4,0.8,1,1.8,1.4,2.8c0.3,1,0.3,2,0.3,3
	s0,2,0,3.8c0,1.9,0,4.5,0.3,6.2c0.4,1.7,1,2.3,1,4s-0.6,4.3-0.5,6.3c0.2,2,1.2,3.4,1,5c-0.1,1.7-1.5,3.7-1.3,5.7s1.8,4,2.3,6
	s-0.1,4-0.3,5.7c-0.2,1.6,0.2,3,0.3,3.6c0.2,0.7,0.2,0.7,0.4,2.7c0.1,2,0.5,6-0.2,8.7c-0.7,2.6-2.3,4-3.8,4.3s-2.9-0.3-5-0.2
	c-2.2,0.2-5.2,1.2-6.4,3c-1.1,1.9-0.5,4.5,0.5,6s2.4,1.9,3.2,2.2s1.2,0.7,2.3,1.5c1.2,0.8,3.2,2.2,4.2,2.8c1,0.7,1,0.7,1.8,1.2
	c0.9,0.5,2.5,1.5,3.4,3c0.8,1.5,0.8,3.5-0.5,4.8c-1.4,1.4-4,2-5.7,3.5s-2.3,3.9-1.2,5.5c1.2,1.7,4.2,2.7,5.9,3.2
	c1.6,0.5,2,0.5,3.6,0.7c1.7,0.1,4.7,0.5,6.9,0.1c2.1-0.3,3.5-1.3,5.8-2c2.3-0.6,5.7-1,7.8-0.3c2.2,0.7,3.2,2.3,3.9,3.2
	c0.6,0.8,1,0.8,2.3,1.8s3.7,3,5,4.7c1.3,1.6,1.7,3,3,4.1c1.3,1.2,3.7,2.2,5,3.7s1.7,3.5,1.5,5.5s-0.8,4-1,5.3
	c-0.2,1.4,0.2,2,0.3,2.7c0.2,0.7,0.2,1.3,0.9,2.8c0.6,1.5,2,3.9,3.3,5.4s2.7,2.1,4.3,1.8c1.7-0.3,3.7-1.7,6-1.3
	c2.4,0.3,5,2.3,6.5,3.6c1.5,1.4,1.9,2,2,3.4c0.2,1.3,0.2,3.3,0.2,4.5c0,1.1,0,1.5-0.7,3.3c-0.6,1.8-2,5.2-3.5,7s-3.1,2.2-5.1,1.8
	c-2-0.3-4.4-1.3-5.9-1.8s-2.1-0.5-3.3-1s-2.8-1.5-3.7-2c-0.8-0.5-0.8-0.5-2,0c-1.1,0.5-3.5,1.5-4.6,2.3c-1.2,0.9-1.2,1.5-2.2,2.2
	s-3,1.3-4.7,1.5c-1.6,0.2-3-0.2-4.6,0c-1.7,0.2-3.7,0.8-5.4,1c-1.6,0.2-3-0.2-4.1-0.7c-1.2-0.5-2.2-1.1-2.7-2.3s-0.5-2.8,0.3-4.8
	c0.9-2,2.5-4.4,4.2-5.7s3.3-1.7,4.5-3s1.8-3.7,1.5-5.7s-1.7-3.6-2.5-4.5c-0.8-0.8-1.2-0.8-3-0.5c-1.8,0.4-5.2,1-7.2,2.2
	s-2.6,2.8-3.5,3.8c-0.8,1-1.8,1.4-2.8,2.4s-2,2.6-3,3.8s-2,1.8-2.7,2.3c-0.6,0.5-1,0.9-1.3,1.9s-0.7,2.6,0,4.6s2.3,4.4,3.2,5.9
	c0.8,1.5,0.8,2.1,1.6,3.8c0.9,1.7,2.5,4.3,3.9,5.7c1.3,1.3,2.3,1.3,3.1,2.6c0.9,1.4,1.5,4,1.4,6c-0.2,2-1.2,3.4-2.5,4
	c-1.4,0.7-3,0.7-4,0.7s-1.4,0-2.5,0c-1.2,0-3.2,0-4.5,0c-1.4,0-2,0-3,0.5s-2.4,1.5-3.9,1.8c-1.5,0.4-3.1,0-4.6,0.2s-2.9,0.8-4,1
	c-1.2,0.2-2.2-0.2-3-0.2c-0.9,0-1.5,0.4-2.4,1.4c-0.8,1-1.8,2.6-3.3,3.8s-3.5,1.8-5.5,1.5s-4-1.7-4.2-4c-0.1-2.3,1.5-5.7,2.2-7.7
	s0.3-2.6-0.7-3.5c-1-0.8-2.6-1.8-5-2c-2.3-0.1-5.3,0.5-6.8,0.9c-1.5,0.3-1.5,0.3-2.7,1c-1.1,0.6-3.5,2-5.5,2.5s-3.6,0.1-5.1,0.5
	c-1.5,0.3-2.9,1.3-4.9,1.6c-2,0.4-4.6,0-6.1-0.1c-1.5-0.2-1.9-0.2-3.7,0c-1.8,0.1-5.2,0.5-7.3-0.5c-2.2-1-3.2-3.4-5-5
	c-1.9-1.7-4.5-2.7-6.4-3c-1.8-0.4-2.8,0-3.6,1c-0.9,1-1.5,2.6-1.9,4.5c-0.3,1.8-0.3,3.8-0.3,5c0,1.1,0,1.5,0,2.8s0,3.7-1.5,5.5
	s-4.5,3.2-6,4s-1.5,1.2-2.7,1.5c-1.1,0.3-3.5,0.7-5,1.3c-1.5,0.7-2.1,1.7-4.1,2.2s-5.4,0.5-7.2,0.5s-2.2,0-2.5-0.3
	c-0.3-0.4-0.7-1-2.2-1.2s-4.1,0.2-6.1-0.2c-2-0.3-3.4-1.3-5.4-0.6c-2,0.6-4.6,3-6.3,3.6c-1.7,0.7-2.3-0.3-3.8-1.1
	c-1.5-0.9-3.9-1.5-5.5-1.5c-1.7,0-2.7,0.6-4.5,0c-1.9-0.7-4.5-2.7-6-3.5c-1.5-0.9-1.9-0.5-3.5-0.4c-1.7,0.2-4.7,0.2-6.7,1.4
	c-2,1.1-3,3.5-2.7,5.1c0.4,1.7,2,2.7,2.5,4.7s-0.1,5-1.1,6.7c-1,1.6-2.4,2-3.2,2.3s-1.2,0.7-2.8,1.5c-1.7,0.8-4.7,2.2-6.4,3.7
	c-1.6,1.5-2,3.1-2.3,4.1s-0.7,1.4-1.2,3c-0.5,1.7-1.1,4.7-2.6,6.4c-1.5,1.6-3.9,2-5.7,1.8s-3.2-0.8-4.5-1.2
	c-1.3-0.3-2.7-0.3-3.7-0.3s-1.6,0-2.1-0.3c-0.5-0.4-0.9-1-2.4-1.7s-4.1-1.3-5.8-2c-1.7-0.7-2.3-1.3-4.2-1.8
	c-1.8-0.5-4.8-0.9-6.5-1.5c-1.6-0.7-2-1.7-1.8-3.7s0.8-5,1.2-6.5c0.3-1.5,0.3-1.5,0.5-2.2c0.1-0.6,0.5-2,1.5-3.1
	c1-1.2,2.6-2.2,3.5-3.5c0.8-1.4,0.8-3,1.6-4.2c0.9-1.2,2.5-1.8,3.9-3c1.3-1.2,2.3-2.8,2.5-4.7c0.1-1.8-0.5-3.8-1-5
	c-0.5-1.1-0.9-1.5-1.9-2.5s-2.6-2.6-3.8-3.5c-1.2-0.8-1.8-0.8-3.2-1.8c-1.3-1-3.3-3-4.1-5c-0.9-2-0.5-4-0.7-5.5s-0.8-2.5-1.2-4.3
	c-0.3-1.9-0.3-4.5-0.5-6c-0.1-1.5-0.5-1.9-1.5-2.5c-1-0.7-2.6-1.7-3.8-2c-1.2-0.4-1.8,0-2.7,0.8c-0.8,0.8-1.8,2.2-2.1,4.8
	c-0.4,2.7,0,6.7,0.3,8.9c0.3,2.1,0.7,2.5,1.3,3.8c0.7,1.3,1.7,3.7,2.2,5.2s0.5,2.1,1.2,3.5c0.6,1.3,2,3.3,2.6,5.3
	c0.7,2,0.7,4-0.1,5.7c-0.9,1.6-2.5,3-4.4,3.3c-1.8,0.3-3.8-0.3-5.3-1.5s-2.5-2.8-4.2-4.3c-1.6-1.5-4-2.9-5.1-3.5
	c-1.2-0.7-1.2-0.7-2.2-1.2s-3-1.5-4.3-2.8c-1.4-1.4-2-3-3-3.9c-1-0.8-2.4-0.8-4-1.8c-1.7-1-3.7-3-5.2-4.2c-1.5-1.1-2.5-1.5-3.5-2.5
	s-2-2.6-3.3-4.1c-1.4-1.5-3-2.9-4-3.5c-1-0.7-1.4-0.7-2.5-2c-1.2-1.4-3.2-4-4.2-5.5s-1-1.9-2-3.5c-1-1.7-3-4.7-3.7-7.4
	c-0.6-2.6,0-5,0.2-6.5s-0.2-2.1-0.5-2.5c-0.3-0.3-0.7-0.3-2-1.8s-3.7-4.5-5.7-6.2c-2-1.6-3.6-2-5.5-2.8c-1.8-0.8-3.8-2.2-4.1-4.3
	c-0.4-2.2,1-5.2,1.8-6.9c0.8-1.6,1.2-2,1.7-3.6c0.5-1.7,1.1-4.7,0.8-7.2s-1.7-4.5-2.2-6.5s-0.1-4,0.4-5.7c0.5-1.6,1.1-3,1.8-3.6
	c0.7-0.7,1.3-0.7,1.8-0.9c0.5-0.1,0.9-0.5,2.7-1.1c1.8-0.7,5.2-1.7,7.2-2.9c2-1.1,2.6-2.5,2.6-4.1c0-1.7-0.6-3.7-0.6-5.4
	c0-1.6,0.6-3,0.5-4.3c-0.2-1.3-1.2-2.7-1.5-4.3c-0.4-1.7,0-3.7-0.2-5c-0.2-1.4-0.8-2-2-2.4c-1.2-0.3-2.8-0.3-4.2-0.8
	c-1.3-0.5-2.3-1.5-3.5-1.7c-1.1-0.1-2.5,0.5-3.8,0s-2.7-2.1-4-3c-1.3-0.8-2.7-0.8-3.7-0.6c-1,0.1-1.6,0.5-2,1
	c-0.3,0.5-0.3,1.1-1.8,2.1s-4.5,2.4-6.5,2.9s-3,0.1-5,0.6s-5,1.9-6.8,2.5c-1.9,0.7-2.5,0.7-2.9,0.7c-0.3,0-0.3,0-1.8-0.5
	s-4.5-1.5-6.8-1.5c-2.4,0-4,1-6.2,0.3c-2.2-0.6-4.8-3-6.8-3.5s-3.4,0.9-3.9,2.4s-0.1,3.1-0.6,4.8s-1.9,3.3-3.5,3.5
	c-1.7,0.2-3.7-1.2-5-1.8c-1.4-0.7-2-0.7-3-1.7s-2.4-3-4-3.8c-1.7-0.9-3.7-0.5-5-1.2c-1.4-0.7-2-2.3-0.9-4.3c1.2-2,4.2-4.4,5.7-5.7
	s1.5-1.7,2.2-2.2c0.6-0.5,2-1.1,3.1-1.5c1.2-0.3,2.2-0.3,2.7-0.3s0.5,0,1.8,0c1.4,0,4,0,6.2,0.5s3.8,1.5,5.8,1.7
	c2,0.1,4.4-0.5,5.5-0.9c1.2-0.3,1.2-0.3,1.5-1.6c0.4-1.4,1-4,1.7-5.5s1.3-1.9,1.8-2.9s0.9-2.6,2.5-3.8c1.7-1.2,4.7-1.8,6.9-1.5
	c2.1,0.3,3.5,1.7,5.5,1.8c2,0.2,4.6-0.8,5.8-2c1.2-1.1,0.8-2.5,1.7-4.3c0.8-1.8,2.8-4.2,3.6-5.7c0.9-1.5,0.5-2.1,0.7-4.6
	s0.8-6.9,1.3-9c0.5-2.2,0.9-2.2,1.2-2.5c0.3-0.4,0.7-1,2-2.2s3.7-2.8,5.7-2.8s3.6,1.6,4.8,2.6s1.8,1.4,3,2c1.2,0.7,2.8,1.7,4,2.2
	s1.8,0.5,2.8,0.7c1,0.1,2.4,0.5,3.5,0.6c1.2,0.2,2.2,0.2,3.5-0.3c1.4-0.5,3-1.5,4.2-2.8c1.2-1.4,1.8-3,2.2-3.9
	c0.3-0.8,0.3-0.8,1-2.3c0.6-1.5,2-4.5,3.6-6.3c1.7-1.9,3.7-2.5,4.9-3.4c1.1-0.8,1.5-1.8,3-3c1.5-1.1,4.1-2.5,5.5-3.1
	c1.3-0.7,1.3-0.7,2-1.4c0.6-0.6,2-2,4.1-2.5c2.2-0.5,5.2-0.1,6.9-0.3c1.6-0.2,2-0.8,3.8-1.3s5.2-0.9,7.2-0.7s2.6,0.8,3.8,1.3
	s2.8,0.9,3.8,0.9s1.4-0.4,2-0.5c0.7-0.2,1.7-0.2,2.7-0.5c1-0.4,2-1,3.3-1.4c1.4-0.3,3-0.3,5-1.1c2-0.9,4.4-2.5,5.5-3.7
	c1.2-1.2,1.2-1.8,1.9-2.7c0.6-0.8,2-1.8,3.5-2.5c1.5-0.6,3.1-1,4.3-1s1.8,0.4,2.8,0.4s2.4-0.4,4,0c1.7,0.3,3.7,1.3,6.2,1.1
	c2.5-0.1,5.5-1.5,7-2.1c1.5-0.7,1.5-0.7,1.5-1c0-0.4,0-1-0.5-2.4c-0.5-1.3-1.5-3.3-1.8-4.8c-0.4-1.5,0-2.5-0.2-4.5s-0.8-5,0-7.7
	c0.8-2.6,3.2-5,4.3-6.5c1.2-1.5,1.2-2.1,1.4-2.5c0.1-0.3,0.5-0.3,1.1-0.3c0.7,0,1.7,0,3.2-0.7c1.5-0.6,3.5-2,4.7-3.8
	c1.1-1.8,1.5-4.2,2.5-5.7s2.6-2.1,3.6-3.1s1.4-2.4,2.5-3.5c1.2-1.2,3.2-2.2,4.4-3.4c1.1-1.1,1.5-2.5,1.3-3.8s-0.8-2.7-1-4
	s0.2-2.7,0.2-3.7s-0.4-1.6-0.4-2.6s0.4-2.4,1.4-3.7s2.6-2.7,4.5-3.2c1.8-0.5,3.8-0.1,5.5,1.7c1.6,1.8,3,5.2,3.6,6.8
	c0.7,1.7,0.7,1.7,0.9,2.7c0.1,1,0.5,3,1.5,4.2c1,1.1,2.6,1.5,4.6,1s4.4-1.9,6.5-2.4c2.2-0.5,4.2-0.1,5.5,0.5c1.4,0.7,2,1.7,2.4,3
	c0.3,1.4,0.3,3,1.5,4.7c1.1,1.7,3.5,3.3,4.8,4.2c1.3,0.8,1.7,0.8,3.2-0.2s4.1-3,5.5-4c1.3-1,1.3-1,2.5-1.5c1.1-0.5,3.5-1.5,4.6-2
	c1.2-0.5,1.2-0.5,2-0.5c0.9,0,2.5,0,4.7,1s4.8,3,6.3,4s1.9,1,3.2,1.8c1.3,0.9,3.7,2.5,5,3.4c1.3,0.8,1.7,0.8,2.2,1
	c0.5,0.1,1.1,0.5,1.6,2.3s0.9,5.2,1.5,7.5c0.7,2.3,1.7,3.7,3.2,3.8c1.5,0.2,3.5-0.8,4.8-1.8c1.4-1,2-2,3.7-3s4.3-2,5.7-2.5
	c1.3-0.5,1.3-0.5,2.8-1s4.5-1.5,6.3-2.5c1.9-1,2.5-2,2.9-2.7c0.3-0.6,0.3-1-0.2-1.8s-1.5-2.2-2.2-3.8c-0.6-1.7-1-3.7-1.3-4.9
	c-0.3-1.1-0.7-1.5-1.3-3.1c-0.7-1.7-1.7-4.7-2-6.5c-0.4-1.9,0-2.5,0-4.2s-0.4-4.3-0.5-5.8c-0.2-1.5-0.2-1.9-0.2-2.7s0-2.2-1.2-3.8
	c-1.1-1.7-3.5-3.7-4.8-5.2s-1.7-2.5-2.5-3.5s-2.2-2-3-3s-1.2-2-1.3-2.7c-0.2-0.6-0.2-1-1.5-1.8c-1.4-0.8-4-2.2-6.2-4.3
	c-2.2-2.2-3.8-5.2-4.7-6.9c-0.8-1.6-0.8-2-1.5-3c-0.6-1-2-2.6-2-4.5c0-1.8,1.4-3.8,2-6.1c0.7-2.4,0.7-5,0.4-6.7
	c-0.4-1.7-1-2.3-2.5-2.7c-1.5-0.3-3.9-0.3-6.2-1.1c-2.3-0.9-4.7-2.5-5.8-3.4c-1.2-0.8-1.2-0.8-1.5-1.1c-0.4-0.4-1-1-1.5-2.2
	s-0.9-2.8-1.9-4.7c-1-1.8-2.6-3.8-3.6-4.8s-1.4-1-2.4-2.3c-1-1.4-2.6-4-3.3-6.9c-0.7-2.8-0.3-5.8-0.5-7.6c-0.2-1.9-0.8-2.5-2.2-3.2
	c-1.3-0.7-3.3-1.3-4.3-1.7c-1-0.3-1-0.3-2.2-1.3c-1.1-1-3.5-3-4.6-4c-1.2-1-1.2-1-2.5-2.5c-1.4-1.5-4-4.5-5.2-6.5s-0.8-3-0.8-3.8
	c0-0.9-0.4-1.5-0.5-2.7c-0.2-1.2-0.2-2.8,0.5-4.2c0.6-1.3,2-2.3,2.6-4.1c0.7-1.9,0.7-4.5,1-6.2c0.4-1.7,1-2.3,1.7-3.3
	s1.3-2.4,2.2-3.5c0.8-1.2,1.8-2.2,2.6-4.4c0.9-2.1,1.5-5.5,1.9-7.3c0.3-1.8,0.3-2.2,0.6-3.3c0.4-1.2,1-3.2,2.4-4.7
	c1.3-1.5,3.3-2.5,5-4.3c1.6-1.9,3-4.5,3.8-6s1.2-1.9,1.3-3.5c0.2-1.7,0.2-4.7,0.5-6.7c0.4-2,1-3,1.4-4.3c0.3-1.4,0.3-3,0.8-4.7
	s1.5-3.3,2-5s0.5-3.3,0.3-4.2c-0.1-0.8-0.5-0.8-1-2.3s-1.1-4.5-1.3-6.2c-0.2-1.6,0.2-2,0-3.1c-0.2-1.2-0.8-3.2-0.2-5
	c0.7-1.9,2.7-3.5,3.9-4.4c1.1-0.8,1.5-0.8,2.1-0.1c0.7,0.6,1.7,2,2.7,2.1c1,0.2,2-0.8,4.2-1.1c2.1-0.4,5.5,0,7.1,0.3
	c1.7,0.3,1.7,0.7,3,1c1.4,0.3,4,0.7,5.5,0.7s1.9-0.4,3-0.9c1.2-0.5,3.2-1.1,5-2.8c1.9-1.7,3.5-4.3,5.4-5.5c1.8-1.2,3.8-0.8,5.6-1.5
	c1.9-0.7,3.5-2.3,5.2-3s3.3-0.3,4.3-0.3s1.4-0.4,2-1.7c0.7-1.3,1.7-3.7,2.5-4.8c0.9-1.2,1.5-1.2,2.7-2.4c1.2-1.1,2.8-3.5,4.3-4.5
	s2.9-0.6,4.2-1.1s2.7-1.9,4-2.5c1.3-0.7,2.7-0.7,4.2-1.5c1.5-0.9,3.1-2.5,4-3.7c0.8-1.2,0.8-1.8,0.3-3s-1.5-2.8-2-3.8
	s-0.5-1.4-1.7-3.5c-1.1-2.2-3.5-6.2-5.3-8.2s-3.2-2-4-2s-1.2,0-2.2-0.2c-1-0.1-2.6-0.5-3.8-1.1c-1.2-0.7-1.8-1.7-3.2-2.5
	c-1.3-0.9-3.3-1.5-4.8-2.9c-1.5-1.3-2.5-3.3-2.7-4.8c-0.1-1.5,0.5-2.5,0-4.3c-0.5-1.9-2.1-4.5-3.1-6s-1.4-1.9-1.9-3.2
	s-1.1-3.7-0.1-5.5s3.6-3.2,5.5-3.8c1.8-0.7,2.8-0.7,4-1.2c1.1-0.5,2.5-1.5,4-1.7c1.5-0.1,3.1,0.5,4.5,0.7c1.3,0.2,2.3-0.2,4.1,0.3
	c1.9,0.5,4.5,1.9,6,2.9s1.9,1.6,3.2,2.5c1.3,0.8,3.7,1.8,4.8,3.1c1.2,1.4,1.2,3,2.4,4.4c1.1,1.3,3.5,2.3,4.5,3.6
	c1,1.4,0.6,3,1.8,4.7s3.8,3.3,5.2,5.3c1.3,2,1.3,4.4,1.6,6c0.4,1.7,1,2.7,2.4,3.2c1.3,0.5,3.3,0.5,4.5,0.7c1.1,0.1,1.5,0.5,3.3,1
	s5.2,1.1,6.8,3.1c1.7,2,1.7,5.4,1.5,7.2c-0.1,1.8-0.5,2.2-1,4s-1.1,5.2-1.1,7.5s0.6,3.7,1.8,4.7s2.8,1.6,4.7,1.8
	c1.8,0.2,3.8-0.2,5.8,0.7c2,0.8,4,2.8,5.2,4.5c1.1,1.6,1.5,3,2,4s1.1,1.6,2.3,2.5c1.2,0.8,2.8,1.8,3.8,2.6c1,0.9,1.4,1.5,2.4,2.4
	c1,0.8,2.6,1.8,4,3.1c1.3,1.4,2.3,3,3.6,4.4c1.4,1.3,3,2.3,4,2.6c1,0.4,1.4,0,2.4,0s2.6,0.4,4.3,0.2s3.3-0.8,4.8-0.8s2.9,0.6,4,1.8
	c1.2,1.2,2.2,2.8,3.5,3.8c1.4,1,3,1.4,4.5,1.2s2.9-0.8,3.9-1.8s1.6-2.4,2-3.2c0.3-0.8,0.3-1.2,0.8-2.3c0.5-1.2,1.5-3.2,2-4.4
	c0.5-1.1,0.5-1.5,0.5-1.8s0-0.7-0.5-2.5s-1.5-5.2-1.8-8c-0.4-2.8,0-5.2,0.3-6.3c0.3-1.2,0.7-1.2,1.2-2.4c0.5-1.1,1.1-3.5,1.5-4.6
	c0.3-1.2,0.3-1.2,1.3-2.2s3-3,4.7-4.2c1.6-1.1,3-1.5,4.5-2.1c1.5-0.7,3.1-1.7,4.1-2.2s1.4-0.5,2.4-1s2.6-1.5,3.5-2
	c0.8-0.5,0.8-0.5,2.1-0.2c1.4,0.4,4,1,5.9,1.2c1.8,0.2,2.8-0.2,4.1-1.5c1.4-1.3,3-3.7,3.9-5c0.8-1.3,0.8-1.7,1.5-2.3
	c0.6-0.7,2-1.7,2.8-3.5c0.8-1.9,1.2-4.5,0.7-6.4c-0.5-1.8-1.9-2.8-3.2-3.3s-2.7-0.5-4.7-1.7c-2-1.1-4.6-3.5-6-5.1
	c-1.3-1.7-1.3-2.7-0.5-4c0.9-1.4,2.5-3,5-3.5s5.9,0.1,8.2,1.1s3.7,2.4,5.2,3.4s3.1,1.6,4.3,2.3s1.8,1.3,3,1.5s2.8-0.2,4.3,0
	s2.9,0.8,4.2,1s2.7-0.2,3.8,0c1.2,0.2,2.2,0.8,3.9,1c1.6,0.2,4-0.2,5.1-0.3c1.2-0.2,1.2-0.2,2.4-0.4c1.1-0.1,3.5-0.5,5-0.5
	s2.1,0.4,4,0c1.8-0.3,4.8-1.3,6.5-2c1.6-0.6,2-1,2.5-1.3s1.1-0.7,3.5-0.2c2.3,0.5,6.3,1.9,8.8,1.9s3.5-1.4,3.8-3.2
	c0.4-1.8,0-4.2-0.5-5.7s-1.1-2.1-0.5-3.6c0.7-1.5,2.7-3.9,4.9-4.9c2.1-1,4.5-0.6,5.8-0.6s1.7-0.4,3.2-0.9s4.1-1.1,5.5-1.6
	c1.3-0.5,1.3-0.9,2.5-1.2c1.1-0.3,3.5-0.7,5.6-1.8c2.2-1.2,4.2-3.2,5.9-4.2c1.6-1,3-1,3.6-1c0.7,0,0.7,0,1.2-0.3
	c0.5-0.4,1.5-1,2-1.4c0.5-0.3,0.5-0.3,2.8,1.4c2.4,1.6,7,5,9.2,4s1.8-6.4,1.5-9c-0.3-2.7-0.7-2.7-0.8-3.5c-0.2-0.9-0.2-2.5,0.3-4.2
	s1.5-3.3,2.2-4.2c0.6-0.8,1-0.8,1.5-1.5c0.5-0.6,1.1-2,3.3-3.3s5.8-2.7,7-4.5c1.2-1.8-0.2-4.2-1.8-5.5c-1.7-1.3-3.7-1.7-5.4-2.3
	c-1.6-0.7-3-1.7-3.6-2.2c-0.7-0.5-0.7-0.5-1.4-1.3c-0.6-0.9-2-2.5-3-4.4c-1-1.8-1.6-3.8-1.8-5c-0.2-1.1,0.2-1.5,0.8-2
	c0.7-0.5,1.7-1.1,3.7-1c2,0.2,5,1.2,6.5,2.4c1.5,1.1,1.5,2.5,2.8,3.8c1.4,1.3,4,2.7,5.4,3.7c1.3,1,1.3,1.6,2.1,2.6
	c0.9,1,2.5,2.4,4,2.5c1.5,0.2,2.9-0.8,3.9-1.1c1-0.4,1.6,0,2.8-0.5s2.8-1.9,3.7-2.9c0.8-1,0.8-1.6,1.5-2.6c0.6-1,2-2.4,2.8-3.2
	s1.2-1.2,2.5-1.7s3.7-1.1,6-1c2.3,0.2,4.7,1.2,6,1.7s1.7,0.5,2.7-0.8c1-1.4,2.6-4,3.5-5.7c0.8-1.7,0.8-2.3,1.6-3.5
	c0.9-1.2,2.5-2.8,3.5-4.7c1-1.8,1.4-3.8,1.9-5c0.5-1.1,1.1-1.5,2-2.3c0.8-0.8,1.8-2.2,3.3-3.3c1.5-1.2,3.5-2.2,5-2.7
	s2.5-0.5,3.7-0.8C1569.3,206.3,1570.7,205.7,1572,205.7"/>
<path id="island_5" d="M981,247.8c-0.7,1.9-0.3,3.5-0.5,5.4c-0.2,1.8-0.8,3.8-1.2,5.5c-0.3,1.6-0.3,3-0.8,4.5s-1.5,3.1-2,4.1
	s-0.5,1.4-0.7,1.7c-0.1,0.3-0.5,0.7-1.3,2.7s-2.2,5.6-2.5,8c-0.3,2.3,0.3,3.3,0.5,5.1c0.2,1.9-0.2,4.5-0.5,6s-0.7,1.9-1,2.7
	s-0.7,2.2-1.2,3.3c-0.5,1.2-1.1,2.2-1.3,3.4c-0.2,1.1,0.2,2.5,0.2,3.5s-0.4,1.6-0.2,3.5c0.2,1.8,0.8,4.8,0.3,7
	c-0.5,2.1-2.1,3.5-2.6,5.3s0.1,4.2-0.5,6.3c-0.7,2.2-2.7,4.2-3.7,5.4c-1,1.1-1,1.5-1.3,2.1c-0.4,0.7-1,1.7-2.5,2.2s-3.9,0.5-5.9,1
	s-3.6,1.5-4.8,1.8c-1.2,0.4-1.8,0-3.7,0.2c-1.8,0.2-4.8,0.8-6.5,1.2c-1.6,0.3-2,0.3-3,0.6c-1,0.4-2.6,1-3.5,1.4
	c-0.8,0.3-0.8,0.3-1.5,1c-0.6,0.6-2,2-3,4s-1.6,4.6-3,6.3c-1.3,1.7-3.3,2.3-4.8,4s-2.5,4.3-2.8,6c-0.4,1.7,0,2.3,0.1,4
	c0.2,1.7,0.2,4.3,0,5.8c-0.1,1.5-0.5,1.9-0.5,2.5c0,0.7,0.4,1.7,1.5,3.4c1.2,1.6,3.2,4,4.7,5.3s2.5,1.7,3.8,1.5c1.4-0.2,3-0.8,4.2-2
	s1.8-2.8,2-5s-0.2-4.8-0.2-6.7c0-1.8,0.4-2.8,1.2-3.6c0.8-0.9,2.2-1.5,4.3-1c2.2,0.5,5.2,2.1,6.7,3.8s1.5,3.3,2.5,5.2
	c1,1.8,3,3.8,4.2,5c1.1,1.1,1.5,1.5,2,2s1.1,1.1,2,1.6c0.8,0.5,1.8,0.9,3.1,2c1.4,1.2,3,3.2,3.9,4.4c0.8,1.1,0.8,1.5,2,2.1
	c1.1,0.7,3.5,1.7,4.5,3.5c1,1.9,0.6,4.5,0.6,5.9c0,1.3,0.4,1.3,1,3.1c0.7,1.9,1.7,5.5,1.9,7.9c0.1,2.3-0.5,3.3-0.7,5
	c-0.2,1.6,0.2,4,0.7,5.5s1.1,2.1,1.6,2.5c0.5,0.3,0.9,0.3,1.9,0c1-0.4,2.6-1,4.3-1s3.3,0.6,5.2-0.2c1.8-0.8,3.8-3.2,5.3-3.3
	c1.5-0.2,2.5,1.8,4.3,2.6c1.9,0.9,4.5,0.5,6,0.5s1.9,0.4,2.9,0.7s2.6,0.7,3.8,0.7s1.8-0.4,3.3-0.7s3.9-0.7,5.4-1.3
	c1.5-0.7,2.1-1.7,2-3.4c-0.2-1.6-1.2-4-1.5-5.8c-0.4-1.8,0-3.2,0-4.7s-0.4-3.1-0.9-4.1s-1.1-1.4-1.6-2.7s-0.9-3.7-1.2-5
	s-0.7-1.7-2-2.2s-3.7-1.1-5-2.3s-1.7-2.8-1-5s2.3-4.8,3.2-6.3c0.8-1.5,0.8-1.9,1.6-3.2c0.9-1.3,2.5-3.7,3.5-5s1.4-1.7,2.5-3.2
	c1.2-1.5,3.2-4.1,4.4-5.5c1.1-1.3,1.5-1.3,2.3-1.1c0.8,0.1,2.2,0.5,4.2,0.5c2,0,4.6-0.4,6.8-0.2s3.8,0.8,5,1.2
	c1.2,0.3,1.8,0.3,2.5,0.3s1.3,0,3.3-0.8c2-0.9,5.4-2.5,6.9-4.7s1.1-4.8,1.5-6.7c0.3-1.8,1.3-2.8,1-5.5c-0.4-2.6-2-7-1.9-9.5
	c0.2-2.5,2.2-3.1,3.4-3.8c1.1-0.7,1.5-1.3,2.6-2.3c1.2-1,3.2-2.4,5-3c1.9-0.7,3.5-0.7,4.7-0.2s1.8,1.5,2.8,2.3c1,0.9,2.4,1.5,3,3.2
	c0.7,1.7,0.7,4.3,2,5.3c1.4,1,4,0.4,4.9-1c0.8-1.3-0.2-3.3,0-5.1c0.1-1.9,1.5-3.5,2.3-5s1.2-2.9,1-4c-0.2-1.2-0.8-2.2-1-3.4
	c-0.2-1.1,0.2-2.5-0.7-4.5c-0.8-2-2.8-4.6-4.5-5.6c-1.6-1-3-0.4-4.8-0.5c-1.8-0.2-4.2-1.2-5.5-2c-1.3-0.9-1.7-1.5-3-2.2
	s-3.7-1.3-5-2s-1.7-1.3-2.3-1.8c-0.7-0.5-1.7-0.9-2.7-2.7s-2-5.2-2.5-6.8c-0.5-1.7-0.5-1.7-1.8-3.4c-1.4-1.6-4-5-5.4-6.8
	c-1.3-1.8-1.3-2.2-2.5-3c-1.1-0.8-3.5-2.2-5.1-3.7c-1.7-1.5-2.7-3.1-3.7-4.1s-2-1.4-3.5-2.4s-3.5-2.6-4.7-3.6
	c-1.1-1-1.5-1.4-2.3-1.9s-2.2-1.1-3.2-2.5c-1-1.3-1.6-3.3-2.6-4.6c-1-1.4-2.4-2-3.7-3.4c-1.3-1.3-2.7-3.3-4.2-5
	c-1.5-1.6-3.1-3-4.1-3.8s-1.4-1.2-2.7-1.5s-3.7-0.7-5.2-1s-2.1-0.7-3.8-1s-4.3-0.7-6.5,0.2C983.3,244,981.7,246,981,247.8"/>
<path id="island_6" d="M1173.8,333.3c-1.8,1-1.8,1.4-3,2.4c-1.1,1-3.5,2.6-5.3,3.6s-3.2,1.4-3.7,3.5c-0.5,2.2-0.1,6.2,1.9,8.4
	c2,2.1,5.6,2.5,7.5,2.6c1.8,0.2,1.8,0.2,3.1,0.5c1.4,0.4,4,1,5.9,1c1.8,0,2.8-0.6,4.3-1.1s3.5-0.9,4.8-1c1.4-0.2,2-0.2,3.7-0.9
	c1.7-0.6,4.3-2,5.8-3.1c1.5-1.2,1.9-2.2,1.7-3.5c-0.2-1.4-0.8-3-2.5-4.5s-4.3-2.9-5.8-3.7s-1.9-1.2-2-1.3c-0.2-0.2-0.2-0.2-1.2-1.4
	c-1-1.1-3-3.5-4.2-4.6c-1.1-1.2-1.5-1.2-3.5-0.4C1179.3,330.7,1175.7,332.3,1173.8,333.3"/>
<path id="island_6_00000106856949128582083950000017210836262710866367_" d="M1023.7,601.7c-1.8,1-1.8,1.4-3,2.4
	c-1.1,1-3.5,2.6-5.3,3.6s-3.2,1.4-3.7,3.5c-0.5,2.2-0.1,6.2,1.9,8.4c2,2.1,5.6,2.5,7.5,2.6c1.8,0.2,1.8,0.2,3.1,0.5
	c1.4,0.4,4,1,5.9,1c1.8,0,2.8-0.6,4.3-1.1s3.5-0.9,4.8-1c1.4-0.2,2-0.2,3.7-0.9c1.7-0.6,4.3-2,5.8-3.1c1.5-1.2,1.9-2.2,1.7-3.5
	c-0.2-1.4-0.8-3-2.5-4.5s-4.3-2.9-5.8-3.7s-1.9-1.2-2-1.3c-0.2-0.2-0.2-0.2-1.2-1.4c-1-1.1-3-3.5-4.2-4.6c-1.1-1.2-1.5-1.2-3.5-0.4
	C1029.2,599.1,1025.6,600.7,1023.7,601.7"/>
<path id="island_7" d="M985,537.2c1.3,0.8,1.7,0.8,2.5,1.8s2.2,3,3.2,4.2c1,1.1,1.6,1.5,2.1,2.1c0.5,0.7,0.9,1.7,0.9,2.7
	s-0.4,2-1.7,3.2c-1.3,1.1-3.7,2.5-5,3s-1.7,0.1-2.3-1c-0.7-1.2-1.7-3.2-2.2-4.2s-0.5-1-1-2.2c-0.5-1.1-1.5-3.5-2.3-4.6
	c-0.9-1.2-1.5-1.2-2-2.2s-0.9-3-0.5-4.3c0.3-1.4,1.3-2,3-1.5C981.3,534.7,983.7,536.3,985,537.2"/>
<path id="island_8" d="M966.3,556.5c0.7,2.2,0.7,4.8,0.5,6.5c-0.1,1.7-0.5,2.3-1.1,2.8c-0.7,0.5-1.7,0.9-3.2,0.2s-3.5-2.3-4.8-4.5
	c-1.4-2.2-2-4.8-1-6.7c1-1.8,3.6-2.8,5.6-2.5C964.3,552.7,965.7,554.3,966.3,556.5"/>
<path id="island_8_00000080190565963808191650000002744910735820545199_" d="M953.3,472.7c1.5,3.2,1.5,6.9,1.1,9.3
	c-0.2,2.4-1.1,3.3-2.4,4c-1.5,0.7-3.7,1.3-6.9,0.3s-7.5-3.3-10.3-6.5c-3-3.2-4.3-6.9-2.1-9.6c2.1-2.6,7.7-4,12-3.6
	C949,467.3,952,469.6,953.3,472.7"/>
<path id="island_8_00000170276406310104435870000011992773876019562418_" d="M918.9,431.2c0.7,2.2,0.7,4.8,0.5,6.5
	c-0.1,1.7-0.5,2.3-1.1,2.8c-0.7,0.5-1.7,0.9-3.2,0.2s-3.5-2.3-4.8-4.5c-1.4-2.2-2-4.8-1-6.7c1-1.8,3.6-2.8,5.6-2.5
	C916.9,427.4,918.3,429,918.9,431.2"/>
<path id="island_9" d="M982,581.2c-0.7,0.5-1.3,1.1-1.8,2.3s-0.9,2.8-1.9,4.5s-2.6,3.3-3.5,5c-0.8,1.7-0.8,3.3,0.9,5.2
	c1.6,1.8,5,3.8,7.1,3.5c2.2-0.4,3.2-3,3.2-5.2s-1-3.8-0.3-5.5c0.6-1.7,3-3.3,3-5.2c0-1.8-2.4-3.8-3.9-4.6
	C983.3,580.3,982.7,580.7,982,581.2"/>
<path id="island_10" d="M1118.3,586.7c1,0.3,1.4,0.3,1.5,1c0.2,0.6,0.2,2-0.6,3.8c-0.9,1.8-2.5,4.2-3.7,5.3c-1.2,1.2-1.8,1.2-3,0
	c-1.2-1.1-2.8-3.5-2.7-5.6c0.2-2.2,2.2-4.2,4-4.9C1115.7,585.7,1117.3,586.3,1118.3,586.7"/>
<path id="island_10_00000082355546347099279720000015377717130177906841_" d="M955.4,516c0.5,0.2,0.7,0.2,0.8,0.5
	c0.1,0.3,0.1,1-0.3,1.9c-0.4,0.9-1.2,2.1-1.8,2.6c-0.6,0.6-0.9,0.6-1.5,0c-0.6-0.5-1.4-1.8-1.3-2.8c0.1-1.1,1.1-2.1,2-2.5
	C954.1,515.5,954.9,515.8,955.4,516"/>
<path id="island_10_00000009577318276822609660000015214888079823030434_" d="M899.4,409.2c1,0.3,1.4,0.3,1.5,1
	c0.2,0.6,0.2,2-0.6,3.8c-0.9,1.8-2.5,4.2-3.7,5.3c-1.2,1.2-1.8,1.2-3,0c-1.2-1.1-2.8-3.5-2.7-5.6c0.2-2.2,2.2-4.2,4-4.9
	C896.8,408.2,898.4,408.8,899.4,409.2"/>
<path id="island_11" d="M958,595.4c1.4,2,1,4.4,0.9,5.5c-0.2,1.2-0.2,1.2-1.7,1.7s-4.5,1.5-6.5,1.8c-2,0.4-3,0-4-1s-2-2.6-2.5-3.6
	s-0.5-1.4,0.3-2.7c0.9-1.3,2.5-3.7,3.7-5s1.8-1.7,3.7-1C953.7,591.8,956.7,593.4,958,595.4"/>
<path id="island_12" d="M311,630.3c-0.3,2,0.3,4.4,0.5,6.2s-0.2,3.2,0.2,5c0.3,1.8,1.3,4.2,1.5,6.3c0.1,2.2-0.5,4.2,0.1,6
	c0.7,1.9,2.7,3.5,4.9,4.5c2.1,1,4.5,1.4,6.1,1.2c1.7-0.2,2.7-0.8,3.5-2.3c0.9-1.5,1.5-3.9,1.7-5.9s-0.2-3.6-0.3-4.6
	c-0.2-1-0.2-1.4-0.7-2.9s-1.5-4.1-2.2-5.6c-0.6-1.5-1-1.9-1.1-3c-0.2-1.2-0.2-3.2-1.7-5c-1.5-1.9-4.5-3.5-6.3-4.4
	c-1.9-0.8-2.5-0.8-3.5,0C312.7,626.7,311.3,628.3,311,630.3"/>
<path id="island_13" d="M590.5,671.3c-1.5,1.4-1.5,2-0.2,3.4c1.4,1.3,4,3.3,6.2,4c2.2,0.6,3.8,0,5-0.9c1.2-0.8,1.8-1.8,2.2-3
	c0.3-1.1,0.3-2.5-0.7-4s-3-3.1-5.5-3C595,668,592,670,590.5,671.3"/>
<path id="island_14" d="M132.7,684.7c-1.4,1.3-2,3.3-2.2,4.6c-0.2,1.4,0.2,2,1.5,3.2s3.7,2.8,4.8,3.7c1.2,0.8,1.2,0.8,2,2.1
	c0.9,1.4,2.5,4,2.9,6.5c0.3,2.5-0.7,4.9-1,6.7c-0.4,1.8,0,3.2-0.2,4.5s-0.8,2.7-1.3,3.3c-0.5,0.7-0.9,0.7-1.5,1.9
	c-0.7,1.1-1.7,3.5-2.4,4.8c-0.6,1.3-1,1.7-1.6,2.8c-0.7,1.2-1.7,3.2-2.7,4.5c-1,1.4-2,2-3.3,2.2c-1.4,0.2-3-0.2-4.9-1.5
	c-1.8-1.3-3.8-3.7-5.5-5c-1.6-1.3-3-1.7-4.6-2.3c-1.7-0.7-3.7-1.7-5.2-2c-1.5-0.4-2.5,0-3,0s-0.5-0.4-1-0.4s-1.5,0.4-2.8,1.2
	c-1.4,0.8-3,2.2-4.4,4.5c-1.3,2.3-2.3,5.7-2.8,7.7s-0.5,2.6-0.5,3.6s0,2.4,0.2,3.4c0.1,1,0.5,1.6,0.5,3.5c0,1.8-0.4,4.8,0,6.8
	c0.3,2,1.3,3,2,4.7c0.6,1.6,1,4,2.1,5.6c1.2,1.7,3.2,2.7,5,2.7c1.9,0,3.5-1,4.7-1.5s1.8-0.5,3.2-0.8c1.3-0.4,3.3-1,5-1.4
	c1.6-0.3,3-0.3,4,0c1,0.4,1.6,1,3.3,1.5s4.3,0.9,6.7,0.5c2.3-0.3,4.3-1.3,5.8-1.8s2.5-0.5,3.7-0.8c1.1-0.4,2.5-1,3.8-2.9
	c1.3-1.8,2.7-4.8,3.5-6.3s1.2-1.5,2.7-1.3c1.5,0.1,4.1,0.5,5.8,0.1c1.7-0.3,2.3-1.3,4.3-2c2-0.6,5.4-1,7-1.1c1.7-0.2,1.7-0.2,3-0.7
	c1.4-0.5,4-1.5,5.5-2.2c1.5-0.6,1.9-1,3-1.6c1.2-0.7,3.2-1.7,4.2-2.2s1-0.5,2.3-1.3c1.4-0.9,4-2.5,5.5-3.5s1.9-1.4,2-1.7
	c0.2-0.3,0.2-0.7-1-2.7c-1.1-2-3.5-5.6-4.6-7.6c-1.2-2-1.2-2.4-2.2-3.4s-3-2.6-4.2-3.8c-1.1-1.2-1.5-1.8-0.8-3.7
	c0.7-1.8,2.3-4.8,3.5-6.5c1.2-1.6,1.8-2,2.8-2.8s2.4-2.2,3.2-3.3c0.8-1.2,1.2-2.2,1-3.2s-0.8-2-2-3s-2.8-2-4.3-3.8
	c-1.5-1.9-2.9-4.5-3.7-6s-1.2-1.9-2-2c-0.8-0.2-2.2-0.2-3.3-0.5c-1.2-0.4-2.2-1-4.2-1.2s-5,0.2-7.3-0.5c-2.4-0.7-4-2.3-5.2-3.2
	c-1.2-0.8-1.8-0.8-3.2-0.5c-1.3,0.4-3.3,1-4.6,1.2c-1.4,0.2-2-0.2-3.4,0.2c-1.3,0.3-3.3,1.3-4.8,1.6c-1.5,0.4-2.5,0-4,0.2
	S134,683.3,132.7,684.7"/>
<path id="island_15" d="M603.5,696.2c-1.2,0.8-1.8,0.8-2.5,1c-0.7,0.1-1.3,0.5-2,1.5s-1.3,2.6-2.5,3.8s-2.8,1.8-3.8,2.5
	s-1.4,1.3-2.5,2.2c-1.2,0.8-3.2,1.8-4.2,2.5c-1,0.6-1,1-2.2,1.6c-1.1,0.7-3.5,1.7-4.6,3c-1.2,1.4-1.2,3-0.4,4.5
	c0.9,1.5,2.5,2.9,4.2,3.2s3.3-0.3,4.5-0.7c1.2-0.3,1.8-0.3,3-0.5c1.2-0.1,2.8-0.5,3.8-0.8s1.4-0.7,2.9-1.5s4.1-2.2,5.6-3.2
	s1.9-1.6,3-2.6c1.2-1,3.2-2.4,4.2-3.5c1-1.2,1-2.2,2-3.7s3-3.5,2.8-5.8c-0.1-2.4-2.5-5-4-6.4c-1.5-1.3-2.1-1.3-3.3-0.5
	C606.3,693.7,604.7,695.3,603.5,696.2"/>
<path id="island_16" d="M731.3,695.5c1.4,0.8,3,2.2,3.9,3.2c0.8,1,0.8,1.6,0.6,3.1c-0.1,1.5-0.5,3.9-0.6,5.2c-0.2,1.3-0.2,1.7,0,3.2
	c0.1,1.5,0.5,4.1,0,6.6s-1.9,4.9-3.4,6c-1.5,1.2-3.1,1.2-4.8,0c-1.7-1.1-3.3-3.5-3.8-5.8s0.1-4.7-0.2-6.3c-0.3-1.7-1.7-2.7-2.2-4.4
	c-0.5-1.6-0.1-4,1.2-6.1c1.3-2.2,3.7-4.2,5.3-5C729,694.3,730,694.7,731.3,695.5"/>
<path id="island_17" d="M618.3,713.8c-1,1.2-1.6,3.2-1,5.4c0.7,2.1,2.7,4.5,3.7,5.6c1,1.2,1,1.2,2-0.3s3-4.5,4-6.3
	c1-1.9,1-2.5,0-3.4c-1-0.8-3-1.8-4.7-2.1C620.7,712.3,619.3,712.7,618.3,713.8"/>
<path id="island_17_00000063597089961761926120000018130925007031469488_" d="M945.1,444.7c-1,1.2-1.6,3.2-1,5.4
	c0.7,2.1,2.7,4.5,3.7,5.6c1,1.2,1,1.2,2-0.3s3-4.5,4-6.3c1-1.9,1-2.5,0-3.4c-1-0.8-3-1.8-4.7-2.1
	C947.5,443.2,946.1,443.6,945.1,444.7"/>
<path id="island_18" d="M1309.8,788.2c-0.1,1.8-1.5,3.8-1,5.6c0.5,1.9,2.9,3.5,4,5.2c1.2,1.7,1.2,3.3,0.2,4.7c-1,1.3-3,2.3-4.8,2.5
	c-1.9,0.1-3.5-0.5-4.9-2.2c-1.3-1.7-2.3-4.3-3.3-6s-2-2.3-2.5-2.8s-0.5-0.9-0.5-1.5c0-0.7,0-1.7,0.8-3.5c0.9-1.9,2.5-4.5,4.4-5.9
	c1.8-1.3,3.8-1.3,5.3-0.5C1309,784.7,1310,786.3,1309.8,788.2"/>
<path d="M935.3,191.8c0.4-1.5,1-3.1,1.4-4.1c0.3-1,0.3-1.4,0-1.9c-0.4-0.5-1-1.1-1.7-3c-0.7-1.8-1.3-4.8-2.5-6.3s-2.8-1.5-4.7-0.5
	c-1.8,1-3.8,3-5,3.8c-1.1,0.9-1.5,0.5-2.8,0.5s-3.7,0.4-5,0.4s-1.7-0.4-2.5-0.7s-2.2-0.7-3.2-2.2s-1.6-4.1-2.6-5.6s-2.4-1.9-2.9-3.2
	s-0.1-3.7-0.1-4.8c0-1.2-0.4-1.2-1-2.4c-0.7-1.1-1.7-3.5-1.9-5c-0.1-1.5,0.5-2.1,0.5-3.3s-0.6-2.8-1-4.2c-0.3-1.3-0.3-2.3-1.5-3.5
	c-1.1-1.1-3.5-2.5-4.8-3.6c-1.3-1.2-1.7-2.2-2.8-3c-1.2-0.9-3.2-1.5-4.4-1.9c-1.1-0.3-1.5-0.3-3.1-1c-1.7-0.6-4.7-2-6.4-1.8
	c-1.6,0.2-2,1.8-3.8,2.8s-5.2,1.4-7,1.7s-2.2,0.7-3,0.8c-0.8,0.2-2.2,0.2-3-0.3s-1.2-1.5-2.7-2.7c-1.5-1.1-4.1-2.5-6.3-2.3
	s-3.8,1.8-5.5,2.5s-3.3,0.3-4.3,0.3s-1.4,0.4-3.2,0.4s-5.2-0.4-7.3-0.9c-2.2-0.5-3.2-1.1-4.9-1c-1.6,0.2-4,1.2-5.5,1.5
	c-1.5,0.4-2.1,0-3.5,0.5c-1.3,0.5-3.3,1.9-5.5,2.4c-2.1,0.5-4.5,0.1-6.1-0.2c-1.7-0.3-2.7-0.7-3.5-1c-0.9-0.3-1.5-0.7-3.2,0.3
	s-4.3,3.4-5.7,5c-1.3,1.7-1.3,2.7-2,3.7c-0.6,1-2,2-3.5,2.7c-1.5,0.6-3.1,1-5.1,0.3s-4.4-2.3-5.7-3.2c-1.3-0.8-1.7-0.8-3-1.5
	c-1.3-0.6-3.7-2-4.8-2.8c-1.2-0.8-1.2-1.2-0.4-2.3c0.9-1.2,2.5-3.2,3.2-4.2s0.3-1,1-1.8c0.7-0.9,2.3-2.5,3-4.4
	c0.7-1.8,0.3-3.8,0.5-5.3s0.8-2.5,1.2-3.7c0.3-1.1,0.3-2.5,0.5-3.1c0.1-0.7,0.5-0.7,0.6-1.9c0.2-1.1,0.2-3.5,0.7-5.3
	s1.5-3.2,0.8-5.2c-0.6-2-3-4.6-4.1-6c-1.2-1.3-1.2-1.3-2-1.8c-0.9-0.5-2.5-1.5-3.9-1.8c-1.3-0.4-2.3,0-4.1-0.2
	c-1.9-0.2-4.5-0.8-6.5-0.7c-2,0.2-3.4,1.2-4.2,1.9c-0.8,0.6-1.2,1-2.2,2.3s-2.6,3.7-3.8,4.8c-1.2,1.2-1.8,1.2-3.2,2.2
	c-1.3,1-3.3,3-4.3,4.3c-1,1.4-1,2-3.3,2.9c-2.4,0.8-7,1.8-9.4,2.1c-2.3,0.4-2.3,0-2.3-1.6c0-1.7,0-4.7,0.5-6.9
	c0.5-2.1,1.5-3.5,1.8-4.6c0.4-1.2,0-2.2-0.6-3.5c-0.7-1.4-1.7-3-3.9-3.5c-2.1-0.5-5.5,0.1-7.1,0.5c-1.7,0.3-1.7,0.3-3.2,0.8
	s-4.5,1.5-6.3,1.8c-1.9,0.4-2.5,0-3.4,0c-0.8,0-1.8,0.4-3.5,0.4c-1.6,0-4-0.4-5.3-0.5c-1.3-0.2-1.7-0.2-2.2-1.7s-1.1-4.5-1.3-6.2
	c-0.2-1.6,0.2-2,0.2-3.3s-0.4-3.7-1.2-5.2s-2.2-2.1-3-2.6s-1.2-0.9-2.3-1.7c-1.2-0.8-3.2-2.2-4.2-3s-1-1.2-2-2.2s-3-2.6-4.5-3.3
	s-2.5-0.3-4-1s-3.5-2.3-4.8-3c-1.4-0.7-2-0.3-3.2-0.2c-1.2,0.2-2.8,0.2-4.7,0.9c-1.8,0.6-3.8,2-5.6,2c-1.9,0-3.5-1.4-5.9-1.9
	c-2.3-0.5-5.3-0.1-6.8-0.1s-1.5-0.4-2.5-0.2s-3,0.8-4.2,1c-1.1,0.2-1.5-0.2-3.1-0.5c-1.7-0.3-4.7-0.7-6.9,0.5
	c-2.1,1.2-3.5,3.8-4.3,5.2c-0.8,1.3-1.2,1.3-1.5,1.6c-0.3,0.4-0.7,1-1.2,2.5s-1.1,3.9-1.3,5.4s0.2,2.1-0.3,3.5
	c-0.5,1.3-1.9,3.3-2.4,5.5c-0.5,2.1-0.1,4.5-0.1,6s-0.4,2.1-0.5,2.6c-0.2,0.5-0.2,0.9-1,1.9c-0.9,1-2.5,2.6-4.7,3.6
	s-4.8,1.4-6.5,1.7s-2.3,0.7-3.5,0.3c-1.2-0.3-2.8-1.3-3.8-2.1c-1-0.9-1.4-1.5-2.9-2.5s-4.1-2.4-6.1-2.7s-3.4,0.3-4.5,1.7
	c-1.2,1.3-2.2,3.3-3,4.5c-0.9,1.1-1.5,1.5-1.9,2.8c-0.3,1.3-0.3,3.7-0.3,4.8c0,1.2,0,1.2,0,2.2s0,3-0.5,5s-1.5,4-2.3,5.2
	c-0.9,1.1-1.5,1.5-1.9,2c-0.3,0.5-0.3,1.1-1,2.6c-0.6,1.5-2,3.9-3.3,4.9s-2.7,0.6-3.3-0.4c-0.7-1-0.7-2.6,0-4.1c0.6-1.5,2-2.9,2-4.7
	s-1.4-4.2-1.7-5.7s0.3-2.1-0.2-4c-0.5-1.8-2.1-4.8-3.5-6.5c-1.3-1.6-2.3-2-3.5-1.6c-1.1,0.3-2.5,1.3-3.6,1.8
	c-1.2,0.5-2.2,0.5-3.7,1.2c-1.5,0.6-3.5,2-5.8,2.1c-2.4,0.2-5-0.8-6.9-1.1c-1.8-0.4-2.8,0-3.8,0s-2-0.4-3-1c-1-0.7-2-1.7-3.2-2.4
	c-1.1-0.6-2.5-1-3.6-1.5c-1.2-0.5-2.2-1.1-3-2.1c-0.9-1-1.5-2.4-2.9-3.9c-1.3-1.5-3.3-3.1-4.3-4c-1-0.8-1-0.8-1.5-0.6
	c-0.5,0.1-1.5,0.5-2.8,1.5c-1.4,1-3,2.6-3.9,4.1c-0.8,1.5-0.8,2.9-1.5,4.5c-0.6,1.7-2,3.7-3.3,5.2s-2.7,2.5-3.7,2.8
	c-1,0.4-1.6,0-3,0.2c-1.3,0.2-3.3,0.8-4.6,1.5c-1.4,0.7-2,1.3-2.9,2c-0.8,0.7-1.8,1.3-2.5,1.7c-0.6,0.3-1,0.3-2.1,0.3
	c-1.2,0-3.2,0-5,0.5c-1.9,0.5-3.5,1.5-4.9,2c-1.3,0.5-2.3,0.5-3.5,0.7c-1.1,0.1-2.5,0.5-3.5,1.1c-1,0.7-1.6,1.7-2.6,2.4
	c-1,0.6-2.4,1-4,2c-1.7,1-3.7,2.6-5.7,3.5c-2,0.8-4,0.8-5.7,1.1c-1.6,0.4-3,1-3.6,1.4c-0.7,0.3-0.7,0.3-1.4,0.6c-0.6,0.4-2,1-3,2.4
	c-1,1.3-1.6,3.3-1.8,5.8s0.2,5.5,0.3,7.2c0.2,1.6,0.2,2,0.2,2.1c0,0.2,0,0.2,0.7,1.2c0.6,1,2,3,2.6,4c0.7,1,0.7,1,0.7,1.2
	c0,0.1,0,0.5,0.2,2.1c0.1,1.7,0.5,4.7,0.3,7.2s-0.8,4.5-2.2,5.5c-1.3,1-3.3,1-5.3,1.8c-2,0.9-4,2.5-5.2,3.7
	c-1.1,1.2-1.5,1.8-2.3,2.7c-0.8,0.8-2.2,1.8-4,2c-1.8,0.1-4.2-0.5-5.5-1s-1.7-0.9-1.8-2.4c-0.2-1.5-0.2-4.1,0.1-5.8
	c0.4-1.7,1-2.3-0.1-3.7c-1.2-1.3-4.2-3.3-5.9-5.5c-1.6-2.1-2-4.5-2.1-5.6c-0.2-1.2-0.2-1.2-0.7-2.5c-0.5-1.4-1.5-4-3.3-5.5
	c-1.9-1.5-4.5-1.9-6.2-2.4s-2.3-1.1-3.7-1.1c-1.3,0-3.3,0.6-4.6,1.8c-1.4,1.2-2,2.8-3.5,4s-3.9,1.8-5.5,3.2
	c-1.7,1.3-2.7,3.3-4.9,4.5c-2.1,1.1-5.5,1.5-7.3,1.6c-1.8,0.2-2.2,0.2-3.7,0.2s-4.1,0-5.8,0.3c-1.7,0.4-2.3,1-3,2.4
	c-0.7,1.3-1.3,3.3-2.5,5c-1.2,1.6-2.8,3-3.8,4s-1.4,1.6-2.2,2.6s-2.2,2.4-3,3c-0.8,0.7-1.2,0.7-2.3,1c-1.2,0.4-3.2,1-5.5,0.9
	c-2.4-0.2-5-1.2-6.7-1.7s-2.3-0.5-3.7-1c-1.3-0.5-3.3-1.5-4.8-2s-2.5-0.5-4,0.3c-1.5,0.9-3.5,2.5-4.5,3.5s-1,1.4-1.3,1.9
	c-0.4,0.5-1,1.1-2.2,1.5c-1.2,0.3-2.8,0.3-5-0.7s-4.8-3-6.5-4s-2.3-1-3.5-0.5s-2.8,1.5-3.8,2.3c-1,0.9-1.4,1.5-3,2.5
	c-1.7,1-4.7,2.4-6.4,3c-1.6,0.7-2,0.7-3-0.3s-2.6-3-3.5-4c-0.8-1-0.8-1-1.8-2s-3-3-5-4s-4-1-5.7-0.5c-1.6,0.5-3,1.5-4.3,2
	s-2.7,0.5-3.5,0.5s-1.2,0-1.8,1.3c-0.7,1.4-1.7,4-3.2,5.4c-1.5,1.3-3.5,1.3-4.8,0.6c-1.4-0.6-2-2-3-2.8s-2.4-1.2-3.4-1.8
	c-1-0.7-1.6-1.7-3-2.7c-1.3-1-3.3-2-4.8-2.7c-1.5-0.6-2.5-1-3.8-0.3c-1.4,0.7-3,2.3-3.9,4.3c-0.8,2-0.8,4.4-0.8,5.9s0,2.1,0,2.6
	s0,0.9-0.5,1.9s-1.5,2.6-2,4.3s-0.5,3.3-1.7,5.5c-1.1,2.2-3.5,4.8-4.8,6.5s-1.7,2.3-1.3,3.3c0.3,1,1.3,2.4,2,4
	c0.6,1.7,1,3.7,2.1,5.5c1.2,1.9,3.2,3.5,5.4,4.4c2.1,0.8,4.5,0.8,5.8,1c1.3,0.1,1.7,0.5,2.7,0.8s2.6,0.7,4,1.8
	c1.3,1.2,2.3,3.2,2.3,5.4c0,2.1-1,4.5-2.5,6.5s-3.5,3.6-4.7,4.8c-1.1,1.2-1.5,1.8-2.1,2.3c-0.7,0.5-1.7,0.9-2.4,1.7
	c-0.6,0.8-1,2.2-0.5,3.8c0.5,1.7,1.9,3.7,3.9,5.4c2,1.6,4.6,3,6,4.3c1.3,1.3,1.3,2.7,1.5,3.7c0.1,1,0.5,1.6,0.8,3.1s0.7,3.9,0.2,5.7
	s-1.9,3.2-1.9,4.8c0,1.7,1.4,3.7,2.7,4.9c1.3,1.1,2.7,1.5,3.8,1.1c1.2-0.3,2.2-1.3,3.7-2c1.5-0.6,3.5-1,4.8,0c1.4,1,2,3.4,2,4.9
	s-0.6,2.1-0.6,3.6s0.6,3.9,1.3,5.4s1.3,2.1,2,2.5c0.7,0.3,1.3,0.3,2.7,1.3c1.3,1,3.3,3,5.5,3.8c2.1,0.9,4.5,0.5,6,0.5
	s2.1,0.4,3.5,0.5c1.3,0.2,3.3,0.2,4.6,0.7c1.4,0.5,2,1.5,3.9,2.5c1.8,1,4.8,2,6.6,3.2c1.9,1.1,2.5,2.5,4,3.3s3.9,1.2,5.4,2
	s2.1,2.2,3.5,3.5c1.3,1.3,3.3,2.7,4.8,3.3c1.5,0.7,2.5,0.7,3.7,1.5c1.1,0.9,2.5,2.5,3.3,3.4c0.8,0.8,1.2,0.8,2.2,2
	c1,1.1,2.6,3.5,4.5,4.6c1.8,1.2,3.8,1.2,5.1,1.7c1.4,0.5,2,1.5,3.5,2.2c1.5,0.6,3.9,1,5.4,1.6c1.5,0.7,2.1,1.7,3.3,2.2
	s2.8,0.5,4.2,1.2c1.3,0.6,2.3,2,2.6,4.5c0.4,2.5,0,6.1-0.1,8c-0.2,1.8-0.2,1.8-0.2,3c0,1.1,0,3.5,0.8,5.1c0.9,1.7,2.5,2.7,4.2,3
	c1.7,0.4,3.3,0,5.2,1c1.8,1,3.8,3.4,4.5,5.2c0.6,1.8,0,3.2-0.4,5c-0.3,1.8-0.3,4.2-0.5,5.5c-0.1,1.3-0.5,1.7-0.8,2.8
	c-0.3,1.2-0.7,3.2-0.7,4.5c0,1.4,0.4,2-0.1,3.5s-1.9,3.9-3,5.2c-1.2,1.3-2.2,1.7-3,2.2c-0.9,0.5-1.5,1.1-3.5,1.5
	c-2,0.3-5.4,0.3-7,0.3c-1.7,0-1.7,0-3,0.2c-1.4,0.1-4,0.5-5.7,0.5s-2.3-0.4-2.7-0.5c-0.3-0.2-0.3-0.2-1,0.3c-0.6,0.5-2,1.5-3.3,1.8
	c-1.3,0.4-2.7,0-4.5,0.4c-1.8,0.3-4.2,1.3-6.3,1.5c-2.2,0.1-4.2-0.5-5.7-0.9c-1.5-0.3-2.5-0.3-3.5,0.4c-1,0.6-2,2-2.7,3.8
	c-0.6,1.8-1,4.2-1.6,5.5c-0.7,1.3-1.7,1.7-2.5,3.2c-0.9,1.5-1.5,4.1-2.5,5.8s-2.4,2.3-3,3.8c-0.7,1.5-0.7,3.9-1.7,5.2s-3,1.7-4.8,1
	c-1.9-0.7-3.5-2.3-5-2.8s-2.9,0.1-4.7,0.1s-4.2-0.6-5.3-2.3c-1.2-1.7-1.2-4.3-1.9-6.3c-0.6-2-2-3.4-2.6-4.2
	c-0.7-0.8-0.7-1.2-1.7-1.8c-1-0.7-3-1.7-5.5-1.4c-2.5,0.4-5.5,2-7.5,0.9c-2-1.2-3-5.2-3.5-7.2s-0.5-2-1.2-2c-0.6,0-2,0-3.1-0.3
	c-1.2-0.4-2.2-1-2.7-1.7s-0.5-1.3-1.8-3.2c-1.4-1.8-4-4.8-6.9-5.6c-2.8-0.9-5.8,0.5-7.5,1.8c-1.6,1.3-2,2.7-2.1,3.8
	c-0.2,1.2-0.2,2.2-0.5,3.5c-0.4,1.4-1,3-1.9,4.2c-0.8,1.2-1.8,1.8-2.6,2.8c-0.9,1-1.5,2.4-3.5,3.7s-5.4,2.7-7,3.3
	c-1.7,0.7-1.7,0.7-2.4,2c-0.6,1.4-2,4-2.5,5.5s-0.1,1.9-1,2.7c-0.8,0.8-2.8,2.2-3.6,3.5c-0.9,1.3-0.5,2.7-1.4,4
	c-0.8,1.3-2.8,2.7-3.8,3.7s-1,1.6-1.8,3.3c-0.9,1.7-2.5,4.3-3.4,5.8c-0.8,1.5-0.8,1.9-1.1,3.2c-0.4,1.3-1,3.7-1,5.5s0.6,3.2,0.1,4.8
	c-0.5,1.7-2.1,3.7-3.3,4.7s-1.8,1-3,2.3c-1.2,1.4-2.8,4-4.2,5.2c-1.3,1.2-2.3,0.8-3.3,2.3s-2,4.9-2.5,6.7s-0.5,2.2-1,3.5
	s-1.5,3.7-2.2,5.2c-0.6,1.5-1,2.1-1.1,2.5c-0.2,0.3-0.2,0.3-0.4,0.8c-0.1,0.5-0.5,1.5-1.5,2.8c-1,1.4-2.6,3-3.5,4
	c-0.8,1-0.8,1.4-1.8,2.7s-3,3.7-4.7,5c-1.6,1.3-3,1.7-4,2.2s-1.6,1.1-3,1.3c-1.3,0.2-3.3-0.2-4.5-0.5c-1.1-0.3-1.5-0.7-3-0.5
	s-4.1,0.8-6,2.2c-1.8,1.3-2.8,3.3-3,4.6c-0.1,1.4,0.5,2,1.5,2.5s2.4,0.9,3.9,1.5c1.5,0.7,3.1,1.7,4.3,2.2s1.8,0.5,3.3,1
	s3.9,1.5,5.5,1.8c1.7,0.4,2.7,0,4,0.7c1.4,0.7,3,2.3,3.4,4.2c0.3,1.8-0.7,3.8-0.7,5.5c0,1.6,1,3,3,3.1c2,0.2,5-0.8,6.8-1.1
	c1.9-0.4,2.5,0,3.2,0.8s1.3,2.2,1.2,3.8c-0.2,1.7-1.2,3.7-1.2,5.9c0,2.1,1,4.5,1.5,6.1c0.5,1.7,0.5,2.7,0.7,3.7c0.1,1,0.5,2,1,2.7
	c0.5,0.6,1.1,1,2.1,2.3s2.4,3.7,3.4,4.8c1,1.2,1.6,1.2,3.1,2.4c1.5,1.1,3.9,3.5,5,5c1.2,1.5,1.2,2.1,2.4,3.5
	c1.1,1.3,3.5,3.3,5.1,4.1c1.7,0.9,2.7,0.5,4,1.5c1.4,1,3,3.4,4.5,4.7s2.9,1.7,3.9,2.3c1,0.7,1.6,1.7,3.8,1.9
	c2.2,0.1,5.8-0.5,7.8-0.7s2.4,0.2,4.4,0.5s5.6,0.7,7.6,0.8c2,0.2,2.4,0.2,2.5,0.2c0.2,0,0.2,0,1.9-0.7c1.6-0.6,5-2,6.6-2.8
	c1.7-0.8,1.7-1.2,1.9-1.5c0.1-0.3,0.5-0.7,1.6-1.5c1.2-0.8,3.2-2.2,4.4-2.8c1.1-0.7,1.5-0.7,2.6-1c1.2-0.4,3.2-1,4.4-1.4
	c1.1-0.3,1.5-0.3,2.3,1.4c0.8,1.6,2.2,5,2.7,6.6c0.5,1.7,0.1,1.7,0.1,2.9c0,1.1,0.4,3.5,1,5.5c0.7,2,1.7,3.6,2.5,4.6
	c0.9,1,1.5,1.4,3.4,0.4c1.8-1,4.8-3.4,6.3-5c1.5-1.7,1.5-2.7,1.8-3.5c0.4-0.9,1-1.5,1.7-2.7s1.3-2.8,1.8-4s0.9-1.8,1.4-3
	s1.1-2.8,2.5-4.2c1.3-1.3,3.3-2.3,5-2.1c1.6,0.1,3,1.5,3.8,3s1.2,3.1,1.2,4.3s-0.4,1.8-0.4,3.2c0,1.3,0.4,3.3,0.4,4.5
	c0,1.1-0.4,1.5-0.5,2.1c-0.2,0.7-0.2,1.7,0.5,2.9c0.6,1.1,2,2.5,3.8,3.5s4.2,1.6,6,1.8s3.2-0.2,4.3-0.2c1.2,0,2.2,0.4,3.5,0.2
	c1.4-0.2,3-0.8,4.2-1.2c1.2-0.3,1.8-0.3,2.8-0.5c1-0.1,2.4-0.5,4.4-0.1c2,0.3,4.6,1.3,6.1,2.3s1.9,2,3.2,3s3.7,2,6,1.3
	c2.3-0.6,4.7-3,5.7-5s0.6-3.6,1.1-5.3s1.9-3.3,3.5-4.3c1.7-1,3.7-1.4,5.7-0.5c2,0.8,4,2.8,5,4.6c1,1.9,1,3.5,1.5,5.2s1.5,3.3,2,4.5
	s0.5,1.8,1.2,3.2c0.6,1.3,2,3.3,3.3,4.8s2.7,2.5,3.7,3.5s1.6,2,3.3,2.5s4.3,0.5,6.5,1.2c2.2,0.6,3.8,2,4.7,3c0.8,1,0.8,1.6-0.2,3
	c-1,1.3-3,3.3-4.2,4.3c-1.1,1-1.5,1-3,1.8c-1.5,0.9-4.1,2.5-5.3,4.2s-0.8,3.3-1,4.8s-0.8,2.9-0.5,4.5c0.3,1.7,1.7,3.7,1.8,6
	c0.2,2.4-0.8,5-2,6.9c-1.1,1.8-2.5,2.8-4.3,2.5c-1.8-0.4-4.2-2-5.5-2.9c-1.3-0.8-1.7-0.8-2.3-1.1c-0.7-0.4-1.7-1-3.4-1.4
	c-1.6-0.3-4-0.3-5.5,0.2s-2.1,1.5-2.3,3.2c-0.2,1.6,0.2,4,0.8,5.3c0.7,1.3,1.7,1.7,3,3.2c1.4,1.5,3,4.1,3.9,5.5
	c0.8,1.3,0.8,1.3,1.1,1.6c0.4,0.4,1,1,2.7,1.9c1.7,0.8,4.3,1.8,6.7,1.8c2.3,0,4.3-1,5.6-1.3c1.4-0.4,2,0,2.5,0.1
	c0.5,0.2,0.9,0.2,2,0.5c1.2,0.4,3.2,1,4.4,1.4c1.1,0.3,1.5,0.3,2,0.5c0.5,0.1,1.1,0.5,2.3,0.6c1.2,0.2,2.8,0.2,4.3-1.6
	c1.5-1.9,2.9-5.5,5-7.4c2.2-1.8,5.2-1.8,7.2-2c2-0.1,3-0.5,4.3-0.3c1.4,0.2,3,0.8,4,1.2c1,0.3,1.4,0.3,2.4,1.1
	c1,0.9,2.6,2.5,3.8,3.4c1.2,0.8,1.8,0.8,2.8,1.8s2.4,3,3.7,4.3c1.3,1.4,2.7,2,4.8,2c2.2,0,5.2-0.6,6.9-1.5c1.6-0.8,2-1.8,2.1-3
	c0.2-1.1,0.2-2.5,1.2-4.3s3-4.2,4.2-5.3c1.1-1.2,1.5-1.2,2.5-2.2s2.6-3,4-4c1.3-1,2.3-1,3-2.2c0.6-1.1,1-3.5,2.8-4.3s5.2-0.2,7,0.8
	s2.2,2.4,1.5,4c-0.7,1.7-2.3,3.7-3.2,4.7c-0.8,1-0.8,1-2,2.2c-1.1,1.1-3.5,3.5-4.8,4.8s-1.7,1.7-2.5,2.3c-0.8,0.7-2.2,1.7-2.8,3.5
	c-0.7,1.9-0.7,4.5,0.5,6.4c1.1,1.8,3.5,2.8,3.1,4c-0.3,1.1-3.3,2.5-4.1,4.5c-0.9,2,0.5,4.6,2.1,5c1.7,0.3,3.7-1.7,4.7-3.7
	s1-4,1.3-5.3c0.4-1.4,1-2,2.9-2.7c1.8-0.7,4.8-1.3,6.8-1.2c2,0.2,3,1.2,4.7,1.7c1.6,0.5,4,0.5,6.5-1.2c2.5-1.6,5.1-5,6.5-7
	c1.3-2,1.3-2.6,1.5-3.5c0.1-0.8,0.5-1.8,1.5-2.6c1-0.9,2.6-1.5,4.5-1.5c1.8,0,3.8,0.6,5.5,0.5c1.6-0.2,3-1.2,4.8-1.5
	c1.8-0.4,4.2,0,5.7,0.5s2.1,1.1,4.1,1c2-0.2,5.4-1.2,7-2.7c1.7-1.5,1.7-3.5,1.5-4.8c-0.1-1.4-0.5-2-0.5-3.5s0.4-3.9,0.2-5.7
	s-0.8-3.2-0.7-5c0.2-1.8,1.2-4.2,1.2-6s-1-3.2-1.2-4.8c-0.1-1.7,0.5-3.7,1.7-4.9c1.2-1.1,2.8-1.5,5.2,0c2.3,1.5,5.3,4.9,7,6.7
	c1.6,1.8,2,2.2,2.3,2.3c0.3,0.2,0.7,0.2,2,0.2s3.7,0,5.2,0s2.1,0,2.8,0s1.3,0,1.8,0s0.9,0,2,0c1.2,0,3.2,0,4.7-0.2
	c1.5-0.1,2.5-0.5,3.7-0.5c1.1,0,2.5,0.4,3.8,0.4s2.7-0.4,4-0.4s2.7,0.4,4,0.2s2.7-0.8,4.3-0.3c1.7,0.5,3.7,2.1,5,2.5
	c1.4,0.3,2-0.7,3.7-1.4c1.7-0.6,4.3-1,6-1s2.3,0.4,3.2,0.4c0.8,0,1.8-0.4,2.6-1c0.9-0.7,1.5-1.7,1.5-3.7s-0.6-5,0-6.8
	c0.7-1.9,2.7-2.5,4.5-2.5c1.9,0,3.5,0.6,4.9,2.1c1.3,1.5,2.3,3.9,3.1,5.2c0.9,1.3,1.5,1.7,2,2.3c0.5,0.7,0.9,1.7,1.4,2.4
	c0.5,0.6,1.1,1,2.1,1.6c1,0.7,2.4,1.7,3.9,2.2s3.1,0.5,5,1.3c1.8,0.9,3.8,2.5,5.8,2.4c2-0.2,4-2.2,5-3.7s1-2.5,1.2-3.2
	c0.1-0.6,0.5-1,0.6-1.1c0.2-0.2,0.2-0.2,0.9-1.7c0.6-1.5,2-4.5,3.6-6c1.7-1.5,3.7-1.5,5-3.2c1.4-1.6,2-5,2.7-7s1.3-2.6,1.8-3
	c0.5-0.3,0.9-0.3,2-1.5c1.2-1.1,3.2-3.5,5.2-4.5s4-0.6,5.8-1.8c1.9-1.2,3.5-3.8,5.5-5.7c2-1.8,4.4-2.8,5.5-3.5
	c1.2-0.6,1.2-1,1.9-1.3c0.6-0.3,2-0.7,3.8-0.7s4.2,0.4,5.3,0.5c1.2,0.2,1.2,0.2,3,0.2c1.9,0,5.5,0,7.4,0.2c1.8,0.1,1.8,0.5,3.3,0.8
	s4.5,0.7,6.5,0.7s3-0.4,4.7-0.5c1.6-0.2,4-0.2,5.5,0c1.5,0.1,2.1,0.5,3.6,0.5s3.9-0.4,6-0.2c2.2,0.2,4.2,0.8,5.4,1
	c1.1,0.2,1.5-0.2,3-0.3c1.5-0.2,4.1-0.2,5.6-0.4c1.5-0.1,1.9-0.5,3-0.6c1.2-0.2,3.2-0.2,4.5-0.4c1.4-0.1,2-0.5,3.7-0.3
	s4.3,0.8,6.2,2.3c1.8,1.5,2.8,3.9,3.6,5.5c0.9,1.7,1.5,2.7,2.4,3.4c0.8,0.6,1.8,1,2.8,1.5s2,1.1,3,1.6s2,0.9,3,0.9s2-0.4,3.3-1.4
	c1.4-1,3-2.6,4-4.1s1.4-2.9,2.4-3.9s2.6-1.6,3.6-2.5c1-0.8,1.4-1.8,2.2-2.6c0.8-0.9,2.2-1.5,3.2-2.7s1.6-2.8,1.8-4s-0.2-1.8-0.2-3.2
	c0-1.3,0.4-3.3,0.4-4.5c0-1.1-0.4-1.5-0.4-2.6c0-1.2,0.4-3.2-0.3-4.9c-0.7-1.6-2.3-3-3.5-4.6c-1.2-1.7-1.8-3.7-0.7-5.7
	c1.2-2,4.2-4,5.9-5c1.6-1,2-1,3.1-1.8c1.2-0.9,3.2-2.5,4.5-3.5c1.4-1,2-1.4,2.5-1.4s0.9,0.4,2.5-0.1c1.7-0.5,4.7-1.9,6.7-3.2
	s3-2.7,3.3-4.2c0.4-1.5,0-3.1-0.8-4.5c-0.8-1.3-2.2-2.3-3-2.8s-1.2-0.5-2.5-1.5s-3.7-3-4.8-4.7c-1.2-1.6-1.2-3,0.3-3.6
	c1.5-0.7,4.5-0.7,6.2-1.4c1.6-0.6,2-2,1.3-3.5s-2.3-3.1-3.2-4c-0.8-0.8-0.8-0.8-2.1-1.8c-1.4-1-4-3-5.2-4.8c-1.2-1.9-0.8-3.5-0.3-5
	s1.1-2.9,1.3-4.2s-0.2-2.7-0.7-3.7s-1.1-1.6-3.5-1.8c-2.3-0.2-6.3,0.2-8.5,0c-2.1-0.2-2.5-0.8-2.3-2.3s0.8-3.9-0.2-5.9
	s-3.6-3.6-5-5.6c-1.3-2-1.3-4.4-1-5.7c0.4-1.3,1-1.7,2.7-1.5s4.3,0.8,6,2.7c1.7,1.8,2.3,4.8,3,6.5c0.7,1.6,1.3,2,2.8,1.1
	c1.5-0.8,3.9-2.8,5-4.3c1.2-1.5,1.2-2.5,1-3.7c-0.1-1.1-0.5-2.5-0.5-4.1c0-1.7,0.4-3.7,0.2-5.5c-0.2-1.9-0.8-3.5-1-4.9
	c-0.2-1.3,0.2-2.3,1-3.6c0.8-1.4,2.2-3,3.2-3.9c1-0.8,1.6-0.8,3.1-1.3s3.9-1.5,5.5-2.8c1.7-1.4,2.7-3,3.9-3.9c1.1-0.8,2.5-0.8,4-1.3
	s3.1-1.5,4.3-1.8c1.2-0.4,1.8,0,3.8-0.4c2-0.3,5.4-1.3,7-1.8c1.7-0.5,1.7-0.5,3,0c1.4,0.5,4,1.5,6.2,1.7c2.2,0.1,3.8-0.5,5.2-0.7
	c1.3-0.2,2.3,0.2,3,0.3c0.6,0.2,1,0.2,2.1-1c1.2-1.1,3.2-3.5,4-6c0.9-2.5,0.5-5.1,0.4-6.5c-0.2-1.3-0.2-1.3,0.1-2.8
	c0.4-1.5,1-4.5,2.7-6.5s4.3-3,5.7-3.5c1.3-0.5,1.3-0.5,1.3-1.8c0-1.4,0-4,0.2-5.7c0.1-1.7,0.5-2.3,1.6-3c1.2-0.7,3.2-1.3,4.5-1.7
	c1.4-0.3,2-0.3,3.4-0.5c1.3-0.1,3.3-0.5,5-0.6c1.6-0.2,3-0.2,4.3-0.9c1.3-0.6,2.7-2,2.8-4.1c0.2-2.2-0.8-5.2-1.1-7.2c-0.4-2,0-3,0-4
	s-0.4-2-1.4-3s-2.6-2-3.5-3.3c-0.8-1.4-0.8-3-2.1-4.4c-1.4-1.3-4-2.3-5.7-4c-1.7-1.6-2.3-4-3-5.3s-1.3-1.7-1.7-3.3
	c-0.3-1.7-0.3-4.7-0.6-6.5c-0.4-1.9-1-2.5-1.7-4.7s-1.3-5.8-1.5-8.2c-0.2-2.3,0.2-3.3,0.3-4.1c0.2-0.9,0.2-1.5,0.7-2.9
	c0.5-1.3,1.5-3.3,2-4.6c0.5-1.4,0.5-2,1.3-3.5c0.9-1.5,2.5-3.9,3.4-5.4c0.8-1.5,0.8-2.1,1.5-3.3c0.6-1.2,2-2.8,2.8-4
	s1.2-1.8,1.3-2.3c0.2-0.5,0.2-0.9,0.7-2c0.5-1.2,1.5-3.2,2-4.9c0.5-1.6,0.5-3,1.2-4.3c0.6-1.3,2-2.7,3.3-3.5s2.7-1.2,3.7-1.8
	c1-0.7,1.6-1.7,2.8-2.5c1.2-0.9,2.8-1.5,3.8-2.2s1.4-1.3,2.7-2.3s3.7-2.4,5-3c1.3-0.7,1.7-0.7,3-2c1.3-1.4,3.7-4,4.7-5.7
	s0.6-2.3-0.9-3s-4.1-1.3-5.8-2.3s-2.3-2.4-3.8-3.4s-3.9-1.6-5.2-2c-1.3-0.3-1.7-0.3-2.2-2c-0.5-1.6-1.1-5-1.3-7.1
	c-0.2-2.2,0.2-3.2,0.2-4c0-0.9-0.4-1.5-0.2-3.5s0.8-5.4,1.2-7c0.3-1.7,0.3-1.7,0.3-2.4c0-0.6,0-2-0.7-4.1c-0.6-2.2-2-5.2-2-7.9
	c0-2.6,1.4-5,2-7c0.7-2,0.7-3.6,0.7-4.5c0-0.8,0-0.8,0.8-1.1c0.9-0.4,2.5-1,3.9-2.4c1.3-1.3,2.3-3.3,4-4.6c1.6-1.4,4-2,5.5-2.7
	s2.1-1.3,3.6-2s3.9-1.3,5.2-2s1.7-1.3,3-2.3s3.7-2.4,5-3c1.3-0.7,1.7-0.7,2.5-1.2s2.2-1.5,3.5-2s2.7-0.5,3.7-0.7
	c1-0.1,1.6-0.5,2.1-1s0.9-1.1,2-2.3c1.2-1.2,3.2-2.8,3.7-5.5s-0.5-6.3-0.8-8.5c-0.4-2.2,0-2.8,0.1-3.8
	C935,194.7,935,193.3,935.3,191.8z M674.7,235.2c-1.7,1.1-3.7,1.5-5.9,1.1c-2.1-0.3-4.5-1.3-6.2-2c-1.8-0.8-2.9-1.3-4.1-1.8
	s-2.3-1-3.2-2.1c-1-1.1-1.6-2.7-2.3-3.7s-1.3-1.4-2.2-2.9c-0.8-1.5-1.8-4.1-3.8-5.8s-5-2.3-7-2.5s-3,0.2-3.8,0.3
	c-0.9,0.2-1.5,0.2-2.7-0.5c-1.2-0.6-2.8-2-3.7-3.3c-0.8-1.3-0.8-2.7-0.6-3.8c0.1-1.2,0.5-2.2,0.6-3.4c0.2-1.1,0.2-2.5,0.5-3.6
	c0.4-1.2,1-2.2,1.2-3.7s-0.2-3.5,0.3-5.2c0.5-1.6,1.9-3,2.5-5c0.7-2,0.7-4.6,0.4-6.1c-0.4-1.5-1-1.9-1.7-3c-0.7-1.2-1.3-3.2-3.2-5
	c-1.8-1.9-4.8-3.5-6.5-4.5c-1.6-1-2-1.4-2.6-1.7c-0.7-0.3-1.7-0.7-2.7-1.5s-2-2.2-1.9-3.7c0.1-1.5,1.2-3.1,2.4-4.8s2.3-3.3,4.3-3.8
	c1.9-0.5,4.5,0.1,5.5,1.6s0.4,3.9,1.9,5.4s5.1,2.1,7.1,2.6s2.4,0.9,3.4,1.4s2.6,1.1,3.8,2.3s1.8,2.8,2.5,4s1.3,1.8,2.7,3.5
	c1.3,1.7,3.3,4.3,4.4,6c1.1,1.7,1.2,2.3,1.4,3s0.3,1.3,0.3,2.7c-0.1,1.3-0.5,3.3-0.5,4.5c0,1.1,0.4,1.5,0.5,3c0.2,1.5,0.2,4.1,1,6.1
	c0.9,2,2.5,3.4,3.4,4.7c0.8,1.3,0.8,2.7,1.3,4s1.5,2.7,2.2,3.5c0.6,0.8,1,1.2,1.6,1.3c0.7,0.2,1.7,0.2,3,1.9c1.4,1.6,3,5,4.2,6.8
	s1.8,2.2,2.8,3.3c1,1.2,2.4,3.2,2.4,5.2S676.3,234,674.7,235.2z"/>
<path d="z"/>
</svg>
